<?xml version="1.0" encoding="utf-8"?>
<!-- Generator: Adobe Illustrator 16.0.0, SVG Export Plug-In . SVG Version: 6.00 Build 0)  -->
<!DOCTYPE svg PUBLIC "-//W3C//DTD SVG 1.1//EN" "http://www.w3.org/Graphics/SVG/1.1/DTD/svg11.dtd">
<svg version="1.1" id="Layer_1" xmlns="http://www.w3.org/2000/svg" xmlns:xlink="http://www.w3.org/1999/xlink" x="0px" y="0px"
	 width="841.889px" height="420.945px" viewBox="0 0 841.889 420.945" enable-background="new 0 0 841.889 420.945"
	 xml:space="preserve">
<g id="Imagen">
	
		<image overflow="visible" enable-background="new    " width="1024" height="512" xlink:href="plantillas/1.png"  transform="matrix(0.8222 0 0 0.8222 2.440512e-04 -0.0105)">
	</image>
</g>
<g id="texto">
	<path id="p1_13" fill="none" d="M301.326,93.533c0,0,36.747-7.029,73.495,0.64"/>
	<path id="p2_19" fill="none" d="M291.793,109.985c0,0,47.36-6.156,102.761,0.64"/>
	<path id="p3_26" fill="none" d="M259.455,126.437c0,0,99.792-3.844,146.893,0.639"/>
	<path id="p4_24" fill="none" d="M268.211,142.578c0,0,93.844-3.612,138.137,0.603"/>
	<path id="p5_13" fill="none" d="M306.559,162.114c0,0,36.748-7.029,73.496,0.641"/>

	<path id="p6_11" fill="none" d="M241.698,230.504c0,0,31.333,5.837,62.607-0.85"/>
	<path id="p7_23" fill="none" d="M216.765,245.742c0,0,88.166,2.649,129.755-1.145"/>
	<path id="p8_23" fill="none" d="M195.671,259.596c0,0,85.027,2.857,125.133-1.154"/>
	<path id="p9_16" fill="none" d="M223.288,273.477c0,0,40.372,5.046,87.538-0.972"/>
	<path id="p10_11" fill="none" d="M231.476,287.452c0,0,31.334,5.837,62.608-0.849"/>

	<path id="p11_11" fill="none" d="M460.555,194.724c0,0,31.04-7.03,62.079,0.639"/>
	<path id="p12_11" fill="none" d="M460.555,211.177c0,0,28.611-6.155,62.079,0.639"/>
	<path id="p13_11" fill="none" d="M460.555,227.63c0,0,42.174-3.844,62.079,0.639"/>
	<path id="p14_11" fill="none" d="M460.555,244.082c0,0,32.255-1.292,62.079,0.639"/>
	<path id="p15_21" fill="none" d="M432.486,260.535c0,0,84.886,8.211,118.22,0.64"/>
	<path id="p16_20" fill="none" d="M438.154,276.987c0,0,53.306,9.563,106.883,0.64"/>
	<path id="p17_21" fill="none" d="M432.486,293.439c0,0,66.263,9.959,118.22,0.64"/>
	<path id="p18_22" fill="none" d="M431.116,309.891c0,0,70.77,6.521,120.954,0.64"/>
	<path id="p19_21" fill="none" d="M434.644,326.344c0,0,48.245,8.353,113.901,0.639"/>
	<path id="p20_19" fill="none" d="M440.852,342.797c53.307,8.587,101.486,0.639,101.486,0.639"/>
	<path id="p21_17" fill="none" d="M446.25,359.249c52.971,5.794,90.688,0.638,90.688,0.638"/>
	<path id="p22_13" fill="none" d="M454.348,375.702c31.106,5.159,74.494,0.639,74.494,0.639"/>
	<path id="p23_13" fill="none" d="M454.348,392.155c38.19,6.202,74.494,0.638,74.494,0.638"/>
	

	<path id="p24_13" fill="none" d="M672.365,32.151c0,0,36.748-7.03,73.496,0.64"/>
	<path id="p25_19" fill="none" d="M662.83,48.603c0,0,47.36-6.155,102.761,0.639"/>
	<path id="p26_26" fill="none" d="M630.492,65.055c0,0,99.792-3.844,146.894,0.639"/>
	<path id="p27_25" fill="none" d="M639.247,81.197c0,0,93.845-3.613,138.138,0.602"/>
	<path id="p28_13" fill="none" d="M677.597,100.733c0,0,36.748-7.03,73.496,0.64"/>


	<path id="p29_11" fill="none" d="M614.226,155.99c0,0,31.306-5.988,62.61,0.545"/>
	<path id="p30_16" fill="none" d="M606.106,170.006c0,0,40.346-5.244,87.54,0.544"/>
	<path id="p31_23" fill="none" d="M578.557,184.021c0,0,85.012-3.272,125.136,0.545"/>
	<path id="p32_23" fill="none" d="M599.716,197.772c0,0,88.151-3.079,129.759,0.513"/>
	<path id="p33_11" fill="none" d="M624.724,212.889c0,0,31.306-5.989,62.61,0.544"/>
	

	
</g>
<g id="Creadores">
	<path fill="none" d="M20.169,185.249c0,0,107.188,0,112.943,0"/>
	<path fill="none" d="M20.169,198.951c0,0,107.188,0,112.943,0"/>
	<path fill="none" d="M20.169,212.654c0,0,107.188,0,112.943,0"/>
	<path fill="none" d="M20.169,226.356c0,0,107.188,0,112.943,0"/>
	<path fill="none" d="M20.169,240.059c0,0,107.188,0,112.943,0"/>
	<path fill="none" d="M20.169,253.762c0,0,107.188,0,112.943,0"/>
	<path fill="none" d="M20.169,267.465c0,0,107.188,0,112.943,0"/>
	<path fill="none" d="M20.169,281.167c0,0,107.188,0,112.943,0"/>
	<path fill="none" d="M20.169,294.871c0,0,107.188,0,112.943,0"/>
	<path fill="none" d="M20.169,308.573c0,0,107.188,0,112.943,0"/>
	<path fill="none" d="M20.169,322.275c0,0,107.188,0,112.943,0"/>
	<path fill="none" d="M20.169,335.978c0,0,107.188,0,112.943,0"/>
</g>

<defs>
  <style type="text/css">
    @font-face {
	    font-family: Caviar;
	    src: url(plantillas/caviar/CaviarDreams_Bold.ttf);
	}
  </style>
</defs>

<g id="added">
	<text id="text_base" font-family="Caviar" font-size="11" alignment-baseline="text-before-edge" fill="#F5F7F7">
		<textPath id="texto_path" xlink:href="#p1_13">
		</textPath>
	</text>
</g>
</svg>
