<?xml version="1.0" encoding="utf-8"?>
<!-- Generator: Adobe Illustrator 16.0.0, SVG Export Plug-In . SVG Version: 6.00 Build 0)  -->
<!DOCTYPE svg PUBLIC "-//W3C//DTD SVG 1.1//EN" "http://www.w3.org/Graphics/SVG/1.1/DTD/svg11.dtd">
<svg version="1.1" id="Layer_1" xmlns="http://www.w3.org/2000/svg" xmlns:xlink="http://www.w3.org/1999/xlink" x="0px" y="0px"
	 width="841.889px" height="421.787px" viewBox="0 0 841.889 421.787" enable-background="new 0 0 841.889 421.787"
	 xml:space="preserve">

<defs>
  <style type="text/css">
    @font-face {
	    font-family: Caviar;
	    src: url(plantillas/caviar/CaviarDreams_Bold.ttf);
	}
  </style>
</defs>

<g id="Imagen">
	
		<image overflow="visible" enable-background="new    " width="1024" height="512" xlink:href="plantillas/11.png"  transform="matrix(0.8222 0 0 0.8238 -0.0212 7.324219e-04)">
	</image>
</g>
<g id="texto">
	<path id="p1_33" fill="none" d="M355.056,202.317c-11.377,3.168,167.3-46.592,167.3-46.592"/>
	<path id="p2_33" fill="none" d="M354.654,213.258c-11.565,2.892,167.702-41.877,167.702-41.877"/>
	<path id="p3_33" fill="none" d="M355.056,224.088c-7.513,1.66,167.3-37.051,167.3-37.051"/>
	<path id="p4_33" fill="none" d="M355.056,234.844c-9.177,1.783,166.554-32.382,166.554-32.382"/>
	<path id="p5_32" fill="none" d="M355.056,245.294c-10.793,1.765,166.554-26.942,166.554-26.942"/>
	<path id="p6_32" fill="none" d="M355.056,256.581c-8.246,1.11,166.554-22.474,166.554-22.474"/>
	<path id="p7_32" fill="none" d="M354.821,267.393c13.992-0.893,157.624-17.333,164.624-17.333"/>
	<path id="p8_32" fill="none" d="M355.056,278.21c-8.941,0.946,167.3-12.891,167.3-12.891"/>
	<path id="p9_32" fill="none" d="M355.056,289.071c-9.385,0.453,166.554-8.094,166.554-8.094"/>
	<path id="p10_32" fill="none" d="M355.056,299.893c-9.403,0.186,166.554-3.245,166.554-3.245"/>
	<path id="p11_32" fill="none" d="M355.056,310.735c-10.396-0.097,167.3,1.555,167.3,1.555"/>
	<path id="p12_32" fill="none" d="M355.056,321.577c-12.951-0.493,167.3,6.371,167.3,6.371"/>
	<path id="p13_32" fill="none" d="M355.056,332.391c-14.361-0.96,166.554,11.211,166.554,11.211"/>
	<path id="p14_32" fill="none" d="M355.056,343.262c-9.998-0.956,166.554,15.998,166.554,15.998"/>
	<path id="p15_32" fill="none" d="M354.244,354.033c-14.81-1.843,168.111,20.882,168.111,20.882"/>
	<path id="p16_32" fill="none" d="M355.056,364.942c-11.251-1.724,167.3,25.631,167.3,25.631"/>
</g>
<g id="Creadores">
	<path id="C1" fill="none" d="M20.969,186.081c0,0,107.188,0,112.943,0"/>
	<path id="C2" fill="none" d="M20.969,199.783c0,0,107.188,0,112.943,0"/>
	<path id="C3" fill="none" d="M20.969,213.487c0,0,107.188,0,112.943,0"/>
	<path id="C4" fill="none" d="M20.969,227.188c0,0,107.188,0,112.943,0"/>
	<path id="C5" fill="none" d="M20.969,240.891c0,0,107.188,0,112.943,0"/>
	<path id="C6" fill="none" d="M20.969,254.594c0,0,107.188,0,112.943,0"/>
	<path id="C7" fill="none" d="M20.969,268.298c0,0,107.188,0,112.943,0"/>
	<path id="C8" fill="none" d="M20.969,281.999c0,0,107.188,0,112.943,0"/>
	<path id="C9" fill="none" d="M20.969,295.704c0,0,107.188,0,112.943,0"/>
	<path id="C10" fill="none" d="M20.969,309.405c0,0,107.188,0,112.943,0"/>
	<path id="C11" fill="none" d="M20.969,323.108c0,0,107.188,0,112.943,0"/>
	<path id="C12" fill="none" d="M20.969,336.811c0,0,107.188,0,112.943,0"/>
</g>
<g id="added">
	<text id="text_base" font-family="Caviar" font-size="11" alignment-baseline="text-before-edge" fill="#F5F7F7">
		<textPath id="texto_path" xlink:href="#p1_33">
			
		</textPath>
	</text>
</g>
</svg>
