<?xml version="1.0" encoding="utf-8"?>
<!-- Generator: Adobe Illustrator 16.0.0, SVG Export Plug-In . SVG Version: 6.00 Build 0)  -->
<!DOCTYPE svg PUBLIC "-//W3C//DTD SVG 1.1//EN" "http://www.w3.org/Graphics/SVG/1.1/DTD/svg11.dtd">
<svg version="1.1" id="Layer_1" xmlns="http://www.w3.org/2000/svg" xmlns:xlink="http://www.w3.org/1999/xlink" x="0px" y="0px"
	 width="841.889px" height="420.945px" viewBox="0 0 841.889 420.945" enable-background="new 0 0 841.889 420.945"
	 xml:space="preserve">
<g id="Imagen">
	
		<image overflow="visible" enable-background="new    " width="1024" height="512" xlink:href="plantillas/3.png"  transform="matrix(0.8222 0 0 0.8222 -0.0212 -0.0105)">
	</image>
</g>
<g id="texto">
	<path id="p1_25" fill="none" d="M249.221,180.972c0,0,135.202,0,142.725,0"/>
	<path id="p2_25" fill="none" d="M249.221,194.038c0,0,127.507,0,142.725,0"/>
	<path id="p3_25" fill="none" d="M249.221,207.104c0,0,135.572,0,142.725,0"/>
	<path id="p4_25" fill="none" d="M249.221,220.17c0,0,135.039,0,142.725,0"/>
	<path id="p5_25" fill="none" d="M249.221,233.236c0,0,135.202,0,142.725,0"/>
	<path id="p6_25" fill="none" d="M249.221,246.302c0,0,135.572,0,142.725,0"/>
	<path id="p7_25" fill="none" d="M249.221,275.831c0,0,135.202,0,142.725,0"/>
	<path id="p8_25" fill="none" d="M249.221,288.319c0,0,127.507,0,142.725,0"/>
	<path id="p9_25" fill="none" d="M249.221,300.807c0,0,135.572,0,142.725,0"/>
	<path id="p10_25" fill="none" d="M249.221,313.297c0,0,135.039,0,142.725,0"/>
	<path id="p11_25" fill="none" d="M249.221,325.785c0,0,135.202,0,142.725,0"/>
	<path id="p12_25" fill="none" d="M249.221,338.273c0,0,127.507,0,142.725,0"/>
	<path id="p13_25" fill="none" d="M249.221,350.761c0,0,135.039,0,142.725,0"/>
	<path id="p14_13" fill="none" d="M445.212,134.472c0,0,72.354,0,76.17,0"/>
	<path id="p15_17" fill="none" d="M434.126,147.228c0,0,93.048,0,98.343,0"/>
	<path id="p16_19" fill="none" d="M429.946,159.985c0,0,101.081,0,106.704,0"/>
	<path id="p17_20" fill="none" d="M427.717,172.741c0,0,99.309,0,111.16,0"/>
	<path id="p18_20" fill="none" d="M427.717,185.497c0,0,105.591,0,111.16,0"/>
	<path id="p19_25" fill="none" d="M413.552,198.253c0,0,131.98,0,139.492,0"/>
	<path id="p20_25" fill="none" d="M413.552,211.01c0,0,132.14,0,139.492,0"/>
	<path id="p21_25" fill="none" d="M413.552,223.765c0,0,124.618,0,139.492,0"/>
	<path id="p22_25" fill="none" d="M413.552,236.521c0,0,132.14,0,139.492,0"/>
	<path id="p23_25" fill="none" d="M413.783,275.831c0,0,132.141,0,139.492,0"/>
	<path id="p24_25" fill="none" d="M413.783,288.152c0,0,124.618,0,139.492,0"/>
	<path id="p25_25" fill="none" d="M413.783,300.474c0,0,132.503,0,139.492,0"/>
	<path id="p26_25" fill="none" d="M413.783,312.797c0,0,131.98,0,139.492,0"/>
	<path id="p27_25" fill="none" d="M413.783,325.118c0,0,132.141,0,139.492,0"/>
	<path id="p28_25" fill="none" d="M413.783,337.439c0,0,124.618,0,139.492,0"/>
	<path id="p29_25" fill="none" d="M413.783,349.761c0,0,131.98,0,139.492,0"/>
	<path id="p30_25" fill="none" d="M576.586,182.972c0,0,133.495,0,140.922,0"/>
	<path id="p31_25" fill="none" d="M576.586,195.638c0,0,125.896,0,140.922,0"/>
	<path id="p32_25" fill="none" d="M576.586,208.304c0,0,133.861,0,140.922,0"/>
	<path id="p33_25" fill="none" d="M576.586,220.969c0,0,133.334,0,140.922,0"/>
	<path id="p34_25" fill="none" d="M576.586,233.635c0,0,133.495,0,140.922,0"/>
	<path id="p35_25" fill="none" d="M576.586,246.302c0,0,133.861,0,140.922,0"/>
	<path id="p36_25" fill="none" d="M576.586,275.831c0,0,133.495,0,140.922,0"/>
	<path id="p37_25" fill="none" d="M576.586,287.986c0,0,125.896,0,140.922,0"/>
	<path id="p38_25" fill="none" d="M576.586,300.141c0,0,133.861,0,140.922,0"/>
	<path id="p39_25" fill="none" d="M576.586,312.297c0,0,133.334,0,140.922,0"/>
	<path id="p40_25" fill="none" d="M576.586,324.451c0,0,133.495,0,140.922,0"/>
	<path id="p41_25" fill="none" d="M576.586,336.606c0,0,125.896,0,140.922,0"/>
	<path id="p42_25" fill="none" d="M576.586,348.761c0,0,133.334,0,140.922,0"/>
</g>
<g id="Creadores">
	<path id="C1" fill="none" d="M21.71,186.892c0,0,107.189,0,112.944,0"/>
	<path id="C2" fill="none" d="M21.71,200.595c0,0,107.189,0,112.944,0"/>
	<path id="C3" fill="none" d="M21.71,214.299c0,0,107.189,0,112.944,0"/>
	<path id="C4" fill="none" d="M21.71,228.001c0,0,107.189,0,112.944,0"/>
	<path id="C5" fill="none" d="M21.71,241.705c0,0,107.189,0,112.944,0"/>
	<path id="C6" fill="none" d="M21.71,255.408c0,0,107.189,0,112.944,0"/>
	<path id="C7" fill="none" d="M21.71,269.109c0,0,107.189,0,112.944,0"/>
	<path id="C8" fill="none" d="M21.71,282.811c0,0,107.189,0,112.944,0"/>
	<path id="C9" fill="none" d="M21.71,296.514c0,0,107.189,0,112.944,0"/>
	<path id="C10" fill="none" d="M21.71,310.217c0,0,107.189,0,112.944,0"/>
	<path id="C11" fill="none" d="M21.71,323.92c0,0,107.189,0,112.944,0"/>
	<path id="C12" fill="none" d="M21.71,337.624c0,0,107.189,0,112.944,0"/>
</g>
<defs>
  <style type="text/css">
    @font-face {
	    font-family: Caviar;
	    src: url(plantillas/caviar/CaviarDreams_Bold.ttf);
	}
  </style>
</defs>

<g id="added">
	<text id="text_base" font-family="Caviar" font-size="11" alignment-baseline="text-before-edge" fill="#F5F7F7">
		<textPath id="texto_path" xlink:href="#p1_25">
			
		</textPath>
	</text>
	</g>
</svg>
