<?xml version="1.0" encoding="utf-8"?>
<!-- Generator: Adobe Illustrator 16.0.0, SVG Export Plug-In . SVG Version: 6.00 Build 0)  -->
<!DOCTYPE svg PUBLIC "-//W3C//DTD SVG 1.1//EN" "http://www.w3.org/Graphics/SVG/1.1/DTD/svg11.dtd">
<svg version="1.1" id="Layer_1" xmlns="http://www.w3.org/2000/svg" xmlns:xlink="http://www.w3.org/1999/xlink" x="0px" y="0px"
	 width="841.889px" height="420.945px" viewBox="0 0 841.889 420.945" enable-background="new 0 0 841.889 420.945"
	 xml:space="preserve">
<g id="Imagen">
	
		<image overflow="visible" enable-background="new    " width="1024" height="512" xlink:href="plantillas/4.png"  transform="matrix(0.8222 0 0 0.8222 4.882812e-04 -0.0093)">
	</image>
</g>
<g id="texto">
	<path id="p1_16" fill="none" d="M546.444,43.411c0,0,88.278,0,89.79,0"/>
	<path id="p2_16" fill="none" d="M511.284,57.967c0,0,88.569-0.079,91.567,0"/>
	<path id="p3_13" fill="none" d="M495.968,72.522c0,0,72.188,0,75.979,0"/>
	<path id="p4_9" fill="none" d="M492.291,87.078c52.943,0,52.943,0,59.414,0"/>
	<path id="p5_9" fill="none" d="M486.269,101.634c0,0,48.409,0,53.944,0"/>
	<path id="p6_9" fill="none" d="M475.981,116.189c0,0,48.662,0,54.774,0"/>
	<path id="p7_9" fill="none" d="M475.981,130.745c0,0,48.732,0,53.165,0"/>
	<path id="p8_9" fill="none" d="M475.34,145.301c0,0,48.364,0,53.167,0"/>
	<path id="p9_22" fill="none" d="M402.809,159.856c0,0,122.609,0,125.697,0"/>
	<path id="p10_24" fill="none" d="M382.768,174.412c0,0,140.391,0,145.738,0"/>
	<path id="p11_30" fill="none" d="M361.701,188.967c0,0,163.372,0,166.805,0"/>
	<path id="p12_14" fill="none" d="M347.999,203.522c0,0,96.416,0,100.303,0"/>
	<path id="p13_7" fill="none" d="M489.684,203.522c0,0,33.475,0,38.822,0"/>
	<path id="p14_14" fill="none" d="M337.036,218.078c0,0,84.356,0,86.873,0"/>
	<path id="p15_7" fill="none" d="M489.684,218.078c0,0,32.104,0,38.822,0"/>
	<path id="p16_14" fill="none" d="M327.719,232.634c0,0,75.862,0,79.2,0"/>
	<path id="p17_14" fill="none" d="M448.302,232.634c0,0,78.146,0,80.205,0"/>
	<path id="p18_14" fill="none" d="M318.062,247.189c0,0,74.012,0,76.8,0"/>
	<path id="p19_20" fill="none" d="M416.512,247.189c0,0,108.907,0,111.994,0"/>
	<path id="p20_14" fill="none" d="M398.151,261.746c0,0,78.087,0,82.366,0"/>
	<path id="p21_12" fill="none" d="M391.573,276.3c0,0,59.421,0,66.046,0"/>
	<path id="p22_12" fill="none" d="M377.322,290.855c0,0,65.177,0,70.979,0"/>
	<path id="p23_12" fill="none" d="M371.841,305.413c0,0,68.138,0,71.228,0"/>
	<path id="p24_12" fill="none" d="M368.826,319.969c0,0,62.693,0,69.736,0"/>
	<path id="p25_12" fill="none" d="M460.634,319.969c0,0,63.607,0,66.496,0"/>
	<path id="p26_12" fill="none" d="M367.32,334.523c0,0,67.768,0,71.246,0"/>
	<path id="p27_12" fill="none" d="M456.531,334.523c0,0,66.34,0,70.599,0"/>
	<path id="p28_12" fill="none" d="M367.32,349.079c0,0,67.49,0,71.246,0"/>
	<path id="p29_12" fill="none" d="M456.531,349.079c0,0,67.162,0,70.599,0"/>
	<path id="p30_12" fill="none" d="M367.32,363.635c0,0,67.49,0,71.246,0"/>
	<path id="p31_12" fill="none" d="M456.531,363.635c0,0,66.34,0,70.599,0"/>
	<path id="p32_12" fill="none" d="M367.32,378.189c0,0,67.218,0,71.246,0"/>
	<path id="p33_12" fill="none" d="M456.531,378.189c0,0,65.562,0.283,70.599,0"/>
	<path id="p34_12" fill="none" d="M367.32,392.746c0,0,65.572,0,71.246,0"/>
	<path id="p35_12" fill="none" d="M456.531,392.746c0,0,64.421,0,70.599,0"/>
</g>
<g id="Creadores">
	<path id="C1" fill="none" d="M21.732,186.892c0,0,107.189,0,112.944,0"/>
	<path id="C2" fill="none" d="M21.732,200.595c0,0,107.189,0,112.944,0"/>
	<path id="C3" fill="none" d="M21.732,214.299c0,0,107.189,0,112.944,0"/>
	<path id="C4" fill="none" d="M21.732,228.001c0,0,107.189,0,112.944,0"/>
	<path id="C5" fill="none" d="M21.732,241.705c0,0,107.189,0,112.944,0"/>
	<path id="C6" fill="none" d="M21.732,255.408c0,0,107.189,0,112.944,0"/>
	<path id="C7" fill="none" d="M21.732,269.109c0,0,107.189,0,112.944,0"/>
	<path id="C8" fill="none" d="M21.732,282.811c0,0,107.189,0,112.944,0"/>
	<path id="C9" fill="none" d="M21.732,296.514c0,0,107.189,0,112.944,0"/>
	<path id="C10" fill="none" d="M21.732,310.218c0,0,107.189,0,112.944,0"/>
	<path id="C11" fill="none" d="M21.732,323.921c0,0,107.189,0,112.944,0"/>
	<path id="C12" fill="none" d="M21.732,337.624c0,0,107.189,0,112.944,0"/>
</g>

<defs>
  <style type="text/css">
    @font-face {
	    font-family: Caviar;
	    src: url(plantillas/caviar/CaviarDreams_Bold.ttf);
	}
  </style>
</defs>

<g id="added">
	<text id="text_base" font-family="Caviar" font-size="11" alignment-baseline="text-before-edge" fill="#F5F7F7">
		<textPath id="texto_path" xlink:href="#p1_16">
		</textPath>
	</text>
</g>
</svg>
