<?xml version="1.0" encoding="utf-8"?>
<!-- Generator: Adobe Illustrator 16.0.0, SVG Export Plug-In . SVG Version: 6.00 Build 0)  -->
<!DOCTYPE svg PUBLIC "-//W3C//DTD SVG 1.1//EN" "http://www.w3.org/Graphics/SVG/1.1/DTD/svg11.dtd">
<svg version="1.1" id="Layer_1" xmlns="http://www.w3.org/2000/svg" xmlns:xlink="http://www.w3.org/1999/xlink" x="0px" y="0px"
	 width="841.889px" height="420.945px" viewBox="0 0 841.889 420.945" enable-background="new 0 0 841.889 420.945"
	 xml:space="preserve">

<defs>
  <style type="text/css">
    @font-face {
	    font-family: Caviar;
	    src: url(plantillas/caviar/CaviarDreams_Bold.ttf);
	}
  </style>
</defs>

<g id="Imagen">
	
		<image overflow="visible" enable-background="new    " width="1024" height="512" xlink:href="plantillas/7.png"  transform="matrix(0.8222 0 0 0.8222 1.0823 -0.0095)">
	</image>
</g>
<g id="texto">
	<path id="p1_8" fill="none" d="M461.443,14.763c0,0,21.021-5.03,41.719,0"/>
	<path id="p2_8" fill="none" d="M461.443,25.783c0,0,20.354-4.816,41.719,0"/>
	<path id="p3_10" fill="none" d="M460.484,36.217c0,0,22.229-1.965,43.637,0"/>
	<path id="p4_10" fill="none" d="M451.116,47.881c0,0,27-4.652,62.371,0"/>
	<path id="p5_12" fill="none" d="M439.28,59.448c0,0,53.511-6.9,86.045,0"/>
	<path id="p6_18" fill="none" d="M431.663,70.209c0,0,44.863-5.521,101.277,0"/>
	<path id="p7_18" fill="none" d="M425.67,81.425c0,0,47.34-6.188,113.264,0"/>
	<path id="p8_22" fill="none" d="M421.105,92.564c0,0,30.033-6.513,122.393,0"/>
	<path id="p9_22" fill="none" d="M418.51,103.75c0,0,37.481-7.044,127.583,0"/>
	<path id="p10_22" fill="none" d="M414.526,168.886c0,0,129.438-0.572,135.551,0"/>
	<path id="p11_37" fill="none" d="M377.938,181.189c0,0,205.204,1.062,208.729,0"/>
	<path id="p12_40" fill="none" d="M371.351,193.541c0,0,163.63,3.082,221.904,0"/>
	<path id="p13_40" fill="none" d="M367.676,209.184c0,0,227.658-0.608,229.255,0"/>
	<path id="p14_15" fill="none" d="M367.676,223.797c0,0,81.498,0.004,83.341,0"/>
	<path id="p15_15" fill="none" d="M509.173,222.219c0,0,84.159,0.092,87.758,0"/>
	<path id="p16_12" fill="none" d="M367.676,236.356c0,0,62.421-0.438,64.97,0"/>
	<path id="p17_12" fill="none" d="M531.96,236.356c0,0,62.706-0.116,64.971,0"/>
	<path id="p18_11" fill="none" d="M367.676,248.605c0,0,53.061,0.146,55.457,0"/>
	<path id="p19_11" fill="none" d="M541.474,248.605c0,0,53.192-0.521,55.457,0"/>
	<path id="p20_9" fill="none" d="M367.676,262.599c0,0,48.081-0.526,50.633,0"/>
	<path id="p21_9" fill="none" d="M546.091,261.829c0,0,46.241,0.036,50.84,0"/>
	<path id="p22_9" fill="none" d="M367.676,276.391c0,0,46.54-0.401,50.359,0"/>
	<path id="p23_9" fill="none" d="M546.091,275.62c0,0,48.909-0.173,50.84,0"/>
	<path id="p24_9" fill="none" d="M367.676,289.565c0,0,48.493,0.104,50.839,0"/>
	<path id="p25_9" fill="none" d="M546.091,288.794c0,0,46.575-0.333,50.84,0"/>
	<path id="p26_9" fill="none" d="M367.676,301.505c0,0,48.493,0.379,50.839,0"/>
	<path id="p27_9" fill="none" d="M546.091,300.733c0,0,47.575-0.062,50.84,0"/>
	<path id="p28_9" fill="none" d="M367.676,314.267c0,0,48.16-0.525,50.839,0"/>
	<path id="p29_9" fill="none" d="M546.091,313.496c0,0,47.909-0.964,50.84,0"/>
	<path id="p30_9" fill="none" d="M367.676,326.515c0,0,48.826,0.057,50.839,0"/>
	<path id="p31_9" fill="none" d="M546.091,325.744c0,0,47.241,0.951,50.84,0"/>
	<path id="p32_9" fill="none" d="M367.676,339.689c0,0,48.16-0.104,50.839,0"/>
	<path id="p33_9" fill="none" d="M546.091,338.92c0,0,48.241-0.213,50.84,0"/>
	<path id="p34_9" fill="none" d="M367.676,352.864c0,0,48.16-0.929,50.839,0"/>
	<path id="p35_9" fill="none" d="M546.091,352.094c0,0,46.909,0.299,50.84,0"/>
	<path id="p36_9" fill="none" d="M367.676,365.629c0,0,46.159-0.167,50.839,0"/>
	<path id="p37_9" fill="none" d="M546.091,364.854c0,0,47.575-0.272,50.84,0"/>
	<path id="p38_9" fill="none" d="M367.676,378.802c0,0,46.493-1.659,50.839,0"/>
	<path id="p39_9" fill="none" d="M546.091,378.03c0,0,47.909-0.763,50.84,0"/>
</g>
<g id="Creadores">
	<path id="C1" fill="none" d="M22.814,186.892c0,0,107.189,0,112.944,0"/>
	<path id="C2" fill="none" d="M22.814,200.595c0,0,107.189,0,112.944,0"/>
	<path id="C3" fill="none" d="M22.814,214.299c0,0,107.189,0,112.944,0"/>
	<path id="C4" fill="none" d="M22.814,228.001c0,0,107.189,0,112.944,0"/>
	<path id="C5" fill="none" d="M22.814,241.705c0,0,107.189,0,112.944,0"/>
	<path id="C6" fill="none" d="M22.814,255.408c0,0,107.189,0,112.944,0"/>
	<path id="C7" fill="none" d="M22.814,269.109c0,0,107.189,0,112.944,0"/>
	<path id="C8" fill="none" d="M22.814,282.811c0,0,107.189,0,112.944,0"/>
	<path id="C9" fill="none" d="M22.814,296.514c0,0,107.189,0,112.944,0"/>
	<path id="C10" fill="none" d="M22.814,310.219c0,0,107.189,0,112.944,0"/>
	<path id="C11" fill="none" d="M22.814,323.923c0,0,107.189,0,112.944,0"/>
	<path id="C12" fill="none" d="M22.814,337.624c0,0,107.189,0,112.944,0"/>
</g>

<g id="added">
	<text id="text_base" font-family="Caviar" font-size="11" alignment-baseline="text-before-edge" fill="#F5F7F7">
		<textPath id="texto_path" xlink:href="#p1_8">
		
		</textPath>
	</text>			
</g>

</svg>
