<?xml version="1.0" encoding="utf-8"?>
<!-- Generator: Adobe Illustrator 16.0.0, SVG Export Plug-In . SVG Version: 6.00 Build 0)  -->
<!DOCTYPE svg PUBLIC "-//W3C//DTD SVG 1.1//EN" "http://www.w3.org/Graphics/SVG/1.1/DTD/svg11.dtd">
<svg version="1.1" id="Layer_1" xmlns="http://www.w3.org/2000/svg" xmlns:xlink="http://www.w3.org/1999/xlink" x="0px" y="0px"
	 width="841.889px" height="420.945px" viewBox="0 0 841.889 420.945" enable-background="new 0 0 841.889 420.945"
	 xml:space="preserve">
<defs>
  <style type="text/css">
    @font-face {
	    font-family: Caviar;
	    src: url(plantillas/caviar/CaviarDreams_Bold.ttf);
	}
  </style>
</defs>
<g id="Imagen">
	
		<image overflow="visible" enable-background="new    " width="1024" height="512" xlink:href="plantillas/8.png"  transform="matrix(0.8222 0 0 0.8222 2.440512e-04 -0.0095)">
	</image>
</g>
<g id="texto">
	<path id="p1_57" fill="none" d="M261.112,193.629c0,0,8.239-44.652,82.525-93.662c74.286-49.008,150.119-80.477,169.207-83.57"/>
	<path id="p2_51" fill="none" d="M276.778,208.629c0,0-0.014-37,71.501-86.187c74.286-49.008,137.227-73.254,156.312-76.352"/>
	<path id="p3_43" fill="none" d="M292.112,214.299c0,0,16-36.003,79.386-77.702c66.548-36.627,108.331-52.104,118.648-52.618"/>
	<path id="p4_43" fill="none" d="M308.112,228.001c0,0,15.333-31.563,76.279-68.708c66.548-36.627,86.667-35.596,96.98-36.109"/>
	<path id="p5_30" fill="none" d="M325.726,243.889c0,0,16.527-26.263,51.443-47.453c40.754-22.185,88.215-30.952,90.794-30.952"/>
	<path id="p6_27" fill="none" d="M338.867,256.395c0,0,20.242-24.88,54.293-40.355c34.045-15.477,74.283-19.604,74.283-19.604"/>
	<path id="p7_22" fill="none" d="M355.898,270.024c0,0,25.397-37.992,113.612-39.023"/>
	<path id="p8_20" fill="none" d="M362.748,278.815c0,0,21.036-26.954,109.854-28.792"/>
	<path id="p9_20" fill="none" d="M373.095,290.723c0,0,43.916-22.699,108.28-15.295"/>
	<path id="p10_20" fill="none" d="M376.629,306.306c0,0,55.188-19.031,114-10.917"/>
	<path id="p11_22" fill="none" d="M371.624,320.217c0,0,80.455-18.979,128.35-12.023"/>
	<path id="p12_27" fill="none" d="M362.625,327.693c0,0,90.077-18.384,150.645-12.354"/>
	<path id="p13_32" fill="none" d="M342.253,344.733c0,0,112.851-13.706,182.972-10.169"/>
	<path id="p14_40" fill="none" d="M321.445,357.389c0,0,224.413-7.738,229.572-6.706"/>
</g>
<g id="Creadores">
	<path id="C1" fill="none" d="M21.732,186.892c0,0,107.189,0,112.944,0"/>
	<path id="C2" fill="none" d="M21.732,200.595c0,0,107.189,0,112.944,0"/>
	<path id="C3" fill="none" d="M21.732,214.299c0,0,107.189,0,112.944,0"/>
	<path id="C4" fill="none" d="M21.732,228.001c0,0,107.189,0,112.944,0"/>
	<path id="C5" fill="none" d="M21.732,241.705c0,0,107.189,0,112.944,0"/>
	<path id="C6" fill="none" d="M21.732,255.408c0,0,107.189,0,112.944,0"/>
	<path id="C7" fill="none" d="M21.732,269.109c0,0,107.189,0,112.944,0"/>
	<path id="C8" fill="none" d="M21.732,282.811c0,0,107.189,0,112.944,0"/>
	<path id="C9" fill="none" d="M21.732,296.514c0,0,107.189,0,112.944,0"/>
	<path id="C10" fill="none" d="M21.732,310.219c0,0,107.189,0,112.944,0"/>
	<path id="C11" fill="none" d="M21.732,323.922c0,0,107.189,0,112.944,0"/>
	<path id="C12" fill="none" d="M21.732,337.624c0,0,107.189,0,112.944,0"/>
</g>
<g id="added">
	<text id="text_base" font-family="Caviar" font-size="11" alignment-baseline="text-before-edge" fill="#F5F7F7">
		<textPath id="texto_path" xlink:href="#p1_57">
			
		</textPath>
	</text>
</g>
</svg>
