<?xml version="1.0" encoding="utf-8"?>
<!-- Generator: Adobe Illustrator 16.0.0, SVG Export Plug-In . SVG Version: 6.00 Build 0)  -->
<!DOCTYPE svg PUBLIC "-//W3C//DTD SVG 1.1//EN" "http://www.w3.org/Graphics/SVG/1.1/DTD/svg11.dtd">
<svg version="1.1" id="Capa_1" xmlns="http://www.w3.org/2000/svg" xmlns:xlink="http://www.w3.org/1999/xlink" x="0px" y="0px"
	 width="630px" height="153px" viewBox="109.445 215.14 630 153" enable-background="new 109.445 215.14 630 153"
	 xml:space="preserve">
<g>
	<g enable-background="new    ">
		<path fill="#FFFFFF" d="M190.323,229.941c3.696,1.849,6.809,4.086,9.24,6.712s4.183,5.253,5.253,8.073
			c1.069,2.821,1.556,5.544,1.459,8.171c-0.098,2.626-0.876,4.96-2.335,6.905c-1.459,2.141-3.502,3.21-6.128,3.308
			c-2.626,0-4.863-0.778-6.809-2.432c-1.848-1.653-2.918-3.794-3.112-6.322c-0.194-2.529,0.583-4.669,2.237-6.518
			c1.459-1.848,3.404-2.918,5.738-3.112c-1.459-3.016-3.502-5.252-6.128-6.712c-4.279-2.334-8.56-3.015-12.937-1.945
			c-4.377,1.07-8.56,3.21-12.645,6.614c-4.086,3.404-7.977,7.685-11.478,12.742c-3.6,5.155-6.712,10.505-9.436,16.146
			c-2.432,5.253-4.279,10.7-5.738,16.438c-1.362,5.739-2.141,11.186-2.335,16.244c-0.097,5.155,0.486,9.63,1.849,13.521
			c1.361,3.891,3.696,6.614,7.003,8.073c1.848,0.875,4.085,1.069,6.712,0.778c2.626-0.292,5.252-1.07,7.781-2.237
			c2.626-1.168,5.058-2.627,7.393-4.475c2.334-1.848,4.183-3.696,5.544-5.836c-0.292-0.194-0.584-0.39-1.07-0.681
			c-0.389-0.292-0.778-0.486-1.069-0.682c-1.849-1.653-2.918-3.793-3.113-6.322c-0.194-2.529,0.584-4.669,2.237-6.517
			c1.653-1.945,3.794-3.016,6.42-3.21s4.863,0.583,6.712,2.334c2.528,2.432,3.112,5.642,1.653,9.532
			c-1.459,3.892-4.085,7.977-8.073,12.062c-2.432,2.529-5.155,4.767-8.268,6.712c-3.113,1.945-6.226,3.599-9.532,4.766
			c-3.21,1.265-6.42,2.043-9.63,2.335c-3.21,0.291-6.03,0.097-8.657-0.584c-4.377-1.265-7.976-3.307-10.991-6.128
			c-2.918-2.82-5.155-6.03-6.809-9.824c-1.557-3.793-2.626-7.879-3.016-12.256c-0.389-4.377-0.389-8.948,0.098-13.521
			c0.486-4.571,1.459-9.24,2.82-13.812c1.362-4.572,3.016-8.949,4.961-13.034c3.112-6.809,7.198-13.034,12.062-18.578
			c4.863-5.642,10.213-10.116,15.952-13.521c5.738-3.404,11.77-5.446,17.897-6.322C178.553,226.148,184.487,227.121,190.323,229.941
			z"/>
		<path fill="#FFFFFF" d="M211.04,270.697c3.112,0.292,5.447,1.653,7.004,4.183c0.194-0.584,0.389-1.07,0.486-1.459
			c0.097-0.39,0.291-0.778,0.486-1.07l0.389-0.875h10.019c-0.875,2.82-1.653,5.35-2.529,7.781c-0.777,2.14-1.459,4.279-2.14,6.322
			c-0.681,2.14-1.265,3.696-1.557,4.767c-0.777,2.236-1.459,4.279-2.042,6.03c-0.584,1.848-0.584,2.724-0.098,2.724
			c0.876,0,1.751-0.292,2.821-0.876c1.069-0.583,2.042-1.264,3.112-2.236c1.07-0.974,2.14-1.946,3.307-3.113
			c1.07-1.069,2.237-2.14,3.308-3.21c1.069-1.069,2.14-1.653,2.918-1.945c0.875-0.291,1.459-0.291,1.848,0
			c0.39,0.292,0.584,0.778,0.486,1.362c-0.097,0.681-0.486,1.361-1.069,2.237c-2.432,3.209-4.863,5.933-7.393,8.364
			c-2.237,2.141-4.767,4.086-7.489,5.837c-2.724,1.751-5.642,2.626-8.56,2.626c-2.529,0-4.086-0.681-4.767-2.14
			s-0.875-3.21-0.584-5.351c-2.528,2.724-5.155,4.767-7.781,6.226c-2.724,1.459-5.155,1.653-7.295,0.778
			c-1.459-0.681-2.724-1.653-3.599-3.113c-0.973-1.459-1.459-3.209-1.653-5.252c-0.195-2.043,0-4.28,0.583-6.809
			c0.584-2.432,1.557-5.059,2.918-7.879c1.07-2.043,2.432-3.988,3.891-5.836c1.459-1.849,3.113-3.404,4.767-4.669
			c1.751-1.265,3.502-2.237,5.252-2.918C207.83,270.697,209.485,270.503,211.04,270.697z M213.472,286.746
			c1.557-3.21,2.14-5.836,1.557-7.587c-0.584-1.751-1.849-2.626-3.891-2.626c-1.557,0.194-3.113,1.167-4.669,2.918
			c-1.557,1.751-2.918,4.085-4.28,6.809c-0.777,1.654-1.459,3.308-2.042,5.059c-0.584,1.653-1.07,3.209-1.362,4.571
			c-0.292,1.361-0.486,2.529-0.389,3.502c0,0.973,0.389,1.459,0.875,1.653c1.07,0.486,2.237,0.292,3.6-0.584
			c1.361-0.875,2.626-2.042,3.987-3.501c1.265-1.459,2.529-3.113,3.794-5.059C211.721,290.15,212.694,288.4,213.472,286.746z"/>
		<path fill="#FFFFFF" d="M254.908,270.697c3.016,0.292,5.252,1.557,6.809,3.891c1.07-3.112,2.237-6.322,3.307-9.338
			c1.07-3.112,2.043-5.836,2.821-8.268c1.07-2.918,2.043-5.544,2.918-8.073h10.019c-2.334,7.003-4.475,13.325-6.42,19.064
			c-0.875,2.529-1.653,4.961-2.528,7.393c-0.876,2.432-1.557,4.669-2.335,6.711c-0.681,2.043-1.265,3.794-1.751,5.253
			s-0.777,2.529-0.973,3.112c-0.778,2.237-1.459,4.28-2.042,6.031c-0.584,1.848-0.584,2.723,0.097,2.723
			c0.876,0,1.751-0.291,2.821-0.875c1.069-0.584,2.042-1.265,3.112-2.237s2.14-1.945,3.307-3.112c1.07-1.07,2.237-2.14,3.308-3.21
			s1.945-1.653,2.82-1.945c0.876-0.292,1.459-0.292,1.849,0c0.389,0.292,0.583,0.778,0.583,1.361c0,0.682-0.389,1.362-1.069,2.237
			c-2.335,3.21-4.767,5.934-7.393,8.365c-2.237,2.14-4.766,4.085-7.489,5.836c-2.821,1.751-5.642,2.627-8.657,2.627
			c-2.432,0-3.988-0.682-4.669-2.141s-0.875-3.21-0.583-5.35c-2.529,2.724-5.155,4.767-7.782,6.226
			c-2.724,1.459-5.155,1.653-7.295,0.778c-1.459-0.682-2.724-1.654-3.599-3.113c-0.973-1.459-1.459-3.21-1.653-5.252
			c-0.195-2.043,0-4.28,0.583-6.81c0.584-2.432,1.557-5.058,2.918-7.878c1.07-2.043,2.335-3.988,3.794-5.837
			c1.556-1.848,3.112-3.404,4.766-4.668c1.654-1.265,3.404-2.237,5.253-2.919C251.601,270.697,253.255,270.503,254.908,270.697z
			 M257.242,286.552c0.194-0.486,0.39-0.973,0.584-1.361c0.194-0.486,0.389-0.973,0.584-1.362c0.681-2.432,0.583-4.279-0.098-5.544
			s-1.849-1.849-3.404-1.751c-1.557,0.194-3.21,1.167-4.767,2.918c-1.653,1.751-3.112,4.085-4.377,6.809
			c-0.778,1.654-1.361,3.308-1.945,5.059c-0.583,1.653-0.973,3.21-1.265,4.571c-0.291,1.361-0.389,2.529-0.389,3.502
			s0.389,1.459,0.875,1.653c1.07,0.486,2.237,0.292,3.6-0.584c1.361-0.875,2.626-2.042,3.987-3.501
			c1.265-1.459,2.529-3.113,3.794-5.059c1.167-1.848,2.14-3.599,2.918-5.252v-0.098H257.242z"/>
		<path fill="#FFFFFF" d="M298.679,270.697c3.112,0.292,5.447,1.653,7.003,4.183c0.195-0.584,0.39-1.07,0.486-1.459
			c0.098-0.39,0.292-0.778,0.486-1.07l0.39-0.875h10.019c-0.876,2.82-1.653,5.35-2.529,7.781c-0.778,2.14-1.459,4.279-2.14,6.322
			c-0.681,2.14-1.265,3.696-1.557,4.767c-0.778,2.236-1.459,4.279-2.042,6.03c-0.584,1.848-0.584,2.724-0.098,2.724
			c0.875,0,1.751-0.292,2.82-0.876c1.07-0.583,2.043-1.264,3.113-2.236c1.069-0.974,2.14-1.946,3.307-3.113
			c1.07-1.069,2.237-2.14,3.308-3.21c1.069-1.069,2.14-1.653,2.918-1.945c0.875-0.291,1.459-0.291,1.848,0
			c0.39,0.292,0.584,0.778,0.486,1.362c-0.097,0.681-0.486,1.361-1.069,2.237c-2.433,3.209-4.864,5.933-7.393,8.364
			c-2.237,2.141-4.767,4.086-7.49,5.837s-5.642,2.626-8.56,2.626c-2.528,0-4.085-0.681-4.766-2.14s-0.876-3.21-0.584-5.351
			c-2.528,2.724-5.155,4.767-7.781,6.226c-2.724,1.459-5.155,1.653-7.295,0.778c-1.459-0.681-2.724-1.653-3.599-3.113
			c-0.973-1.459-1.459-3.209-1.654-5.252c-0.194-2.043,0-4.28,0.584-6.809c0.584-2.432,1.557-5.059,2.918-7.879
			c1.07-2.043,2.432-3.988,3.891-5.836c1.459-1.849,3.112-3.404,4.767-4.669c1.75-1.265,3.501-2.237,5.252-2.918
			C295.371,270.697,297.122,270.503,298.679,270.697z M301.013,286.746c1.557-3.21,2.141-5.836,1.557-7.587
			s-1.848-2.626-3.891-2.626c-1.557,0.194-3.112,1.167-4.669,2.918s-2.918,4.085-4.279,6.809c-0.778,1.654-1.459,3.308-2.043,5.059
			c-0.584,1.653-1.07,3.209-1.362,4.571c-0.291,1.361-0.486,2.529-0.389,3.502c0,0.973,0.389,1.459,0.875,1.653
			c1.07,0.486,2.237,0.292,3.6-0.584c1.361-0.875,2.626-2.042,3.987-3.501c1.265-1.459,2.529-3.113,3.794-5.059
			C299.36,290.15,300.332,288.4,301.013,286.746z M295.761,256.302c1.751-0.778,4.279-1.849,7.684-3.404
			c3.308-1.557,6.712-3.113,10.019-4.669c3.892-1.751,8.073-3.696,12.451-5.836v10.31l-14.493,3.308l-14.493,3.307
			c-0.194-0.389-0.389-0.777-0.584-1.069C295.955,257.469,295.761,256.885,295.761,256.302z"/>
		<path fill="#FFFFFF" d="M323.093,283.731c0.778-1.849,1.362-3.6,1.945-5.059c0.584-1.556,1.07-2.82,1.557-3.793
			c0.486-1.167,0.973-2.335,1.361-3.308h10.019c-0.389,1.07-0.777,2.237-1.069,3.502c-0.39,1.07-0.778,2.14-1.168,3.404
			c-0.389,1.265-0.777,2.432-1.167,3.404c-2.432,7.393-3.793,12.45-4.085,15.271c-0.292,2.82,0.486,4.279,2.626,4.279
			c1.653,0,3.112-0.778,4.475-2.432c1.265-1.653,2.432-3.501,3.502-5.642c-0.195-0.291-0.39-0.486-0.682-0.778
			c-0.291-0.194-0.486-0.486-0.681-0.875c-1.07-1.361-1.459-3.307-1.361-5.738c0.097-2.433,0.681-4.767,1.653-7.004
			s2.237-4.183,3.793-5.642c1.557-1.459,3.21-2.042,5.059-1.653c1.459,0.486,2.334,1.459,2.626,3.016
			c0.292,1.556,0.194,3.307-0.194,5.252c-0.39,2.043-1.07,4.085-1.849,6.226c-0.777,2.14-1.556,3.987-2.14,5.446
			c0.778,0.486,1.653,0.682,2.724,0.584s2.237-0.778,3.404-2.14c1.07-1.07,1.945-1.849,2.724-2.14c0.778-0.292,1.361-0.292,1.848,0
			c0.39,0.291,0.584,0.777,0.584,1.459c0,0.681-0.292,1.459-0.973,2.334c-1.265,1.751-3.112,3.112-5.35,3.988
			c-2.237,0.875-4.571,0.973-6.906,0.194c-0.778,1.361-1.653,2.82-2.626,4.279c-1.07,1.46-2.14,2.821-3.502,4.086
			c-1.265,1.167-2.724,2.237-4.279,3.016c-1.557,0.778-3.308,1.167-5.155,1.167c-2.724,0-4.767-0.584-6.322-1.849
			c-1.46-1.265-2.433-3.015-2.919-5.252s-0.486-4.863,0-7.781C320.856,290.442,321.732,287.232,323.093,283.731z"/>
		<path fill="#FFFFFF" d="M384.859,289.859c0.778-0.876,1.556-1.459,2.334-1.751c0.876-0.292,1.557-0.39,2.043-0.292
			s0.778,0.486,0.875,1.07c0,0.583-0.292,1.459-1.069,2.626c-0.876,1.069-2.141,2.626-3.891,4.571
			c-1.751,1.945-3.794,3.891-6.031,5.836s-4.766,3.502-7.393,4.767c-2.626,1.265-5.252,1.849-7.781,1.557
			c-2.918-0.292-5.155-1.362-6.906-3.308c-1.75-1.945-2.918-4.183-3.501-6.906c-0.584-2.724-0.682-5.642-0.195-8.754
			s1.46-5.934,3.113-8.56c1.556-2.626,3.696-4.767,6.322-6.517c2.626-1.751,5.836-2.627,9.532-2.627c3.307,0,5.738,1.07,7.198,3.308
			c1.459,2.237,1.945,4.669,1.556,7.295c-0.389,2.626-1.751,5.058-3.988,7.295c-2.236,2.237-5.35,3.308-9.337,3.308
			c-0.682,0-1.265,0-1.751-0.098s-0.973-0.194-1.459-0.389c-0.486-0.195-0.973-0.39-1.362-0.682c-0.194,0.973-0.194,1.849,0,2.821
			c0.195,0.973,0.486,1.848,1.07,2.626c0.486,0.778,1.167,1.459,2.043,1.945c0.875,0.486,1.848,0.778,2.918,0.778
			c1.459,0,2.918-0.292,4.377-0.973s2.82-1.459,4.183-2.529c1.361-1.069,2.626-2.14,3.793-3.307
			C382.718,292.095,383.886,290.928,384.859,289.859z M374.158,277.311c-1.264-0.973-2.528-1.07-3.793-0.39
			c-1.167,0.682-2.237,1.654-3.21,2.919c-0.973,1.264-1.751,2.723-2.334,4.279c-0.682,1.557-1.07,2.821-1.07,3.794
			c1.459,0.583,3.016,0.486,4.669-0.39c1.653-0.778,3.016-1.848,4.183-3.112s1.945-2.626,2.334-3.988
			C375.326,279.159,375.034,278.09,374.158,277.311z"/>
		<path fill="#FFFFFF" d="M384.859,289.859c1.653-2.141,3.112-4.086,4.183-5.934c1.069-1.849,2.042-3.404,2.82-4.669
			c-1.361-0.875-2.334-2.043-2.724-3.502c-0.389-1.459,0-3.307,1.362-5.447c1.069-1.848,2.236-3.209,3.599-4.085
			c1.361-0.875,2.626-1.069,3.696-0.875c1.069,0.292,1.848,1.069,2.236,2.432c0.39,1.361,0.195,3.307-0.583,5.836
			c1.653,0.194,2.918,0.194,3.793,0.098c0.876-0.098,1.751-0.486,2.724-0.876c0.39-0.194,0.876-0.194,1.557-0.097
			c0.681,0.097,1.265,0.389,1.848,0.777c0.584,0.39,0.973,0.876,1.07,1.459c0.194,0.584,0.098,1.265-0.292,2.043
			c-0.973,1.557-1.945,3.696-3.016,6.42c-1.069,2.724-1.945,5.35-2.626,7.879c-0.681,2.528-1.167,4.766-1.361,6.614
			c-0.195,1.848,0.097,2.82,0.973,2.82c0.875,0,1.848-0.389,2.918-1.07c1.069-0.777,2.237-1.653,3.502-2.82
			c1.167-1.07,2.432-2.335,3.599-3.599c1.167-1.265,2.334-2.432,3.501-3.404c1.07-1.07,1.946-1.654,2.821-1.946
			c0.875-0.291,1.459-0.291,1.848,0c0.39,0.292,0.584,0.778,0.584,1.362c0,0.681-0.389,1.361-1.07,2.237
			c-1.848,2.528-3.891,4.863-6.03,7.003c-1.848,1.849-3.891,3.696-6.226,5.545c-2.236,1.848-4.668,3.112-7.003,3.987
			c-1.265,0.486-2.626,0.584-4.085,0.39c-1.362-0.194-2.626-0.778-3.599-1.653c-0.973-0.876-1.654-2.141-2.043-3.794
			s-0.194-3.696,0.584-6.03c0.681-1.946,1.459-3.892,2.334-5.934c0.973-2.043,1.848-3.794,2.626-5.545
			c0.778-1.75,1.459-3.015,1.945-4.085s0.486-1.459,0.098-1.361c-1.653,0.486-3.21,0.583-4.571,0.389
			c-0.876,1.557-1.849,3.404-3.113,5.544c-1.264,2.141-2.528,3.988-3.793,5.545c-1.07,1.265-1.945,2.14-2.724,2.432
			s-1.361,0.292-1.848,0c-0.39-0.292-0.584-0.876-0.584-1.653C383.886,291.512,384.178,290.734,384.859,289.859z"/>
	</g>
	<g enable-background="new    ">
		<path fill="#FFFFFF" d="M451.876,307.853c-5.447-0.875-10.311-0.486-14.396,1.07c-4.085,1.557-7.489,3.696-10.213,6.517
			c-2.724,2.821-4.766,6.031-6.03,9.63c-1.362,3.599-2.043,7.197-2.14,10.603c0,3.404,0.583,6.517,1.945,9.24
			c1.361,2.724,3.404,4.669,6.03,5.642c1.945,0.778,4.183,0.973,6.809,0.583c2.626-0.291,5.253-1.069,7.781-2.237
			c2.627-1.167,5.059-2.626,7.295-4.377c2.237-1.75,4.086-3.695,5.545-5.738c-0.194-0.194-0.486-0.39-0.973-0.681
			c-0.486-0.292-0.778-0.486-0.973-0.682c-1.945-1.653-3.016-3.793-3.113-6.322c-0.097-2.528,0.584-4.669,2.335-6.517
			c1.653-1.945,3.793-3.016,6.322-3.21s4.669,0.584,6.517,2.334c1.265,1.168,2.043,2.627,2.335,4.28
			c0.194,1.653,0,3.404-0.584,5.252c-0.583,1.946-1.556,3.892-3.015,5.934c-1.362,2.043-3.113,4.086-5.059,6.128
			c-2.432,2.529-5.155,4.669-8.268,6.518c-3.112,1.848-6.225,3.404-9.435,4.571s-6.42,2.043-9.63,2.334
			c-3.21,0.39-6.128,0.292-8.754-0.291c-5.059-1.168-9.144-3.21-12.256-6.128c-3.21-2.918-5.35-6.226-6.712-9.922
			c-1.265-3.696-1.751-7.684-1.265-11.964c0.486-4.183,1.751-8.268,3.794-12.062c2.14-3.793,4.961-7.295,8.657-10.311
			c3.695-3.112,8.073-5.35,13.229-6.809c-2.237-2.043-3.794-4.571-4.767-7.489s-1.361-6.031-1.265-9.241
			c0.098-3.209,0.876-6.517,2.14-9.823c1.265-3.308,3.21-6.42,5.739-9.436c2.724-3.112,5.642-5.642,8.948-7.781
			c3.21-2.14,6.614-3.696,10.214-4.767c3.501-1.069,7.101-1.459,10.797-1.167c3.695,0.194,7.197,1.167,10.699,2.821
			c3.696,1.848,6.809,4.085,9.24,6.711s4.183,5.253,5.253,8.073c1.069,2.821,1.556,5.545,1.459,8.171
			c-0.098,2.626-0.876,4.961-2.335,6.906c-1.459,2.14-3.502,3.209-6.128,3.307c-2.626,0-4.863-0.778-6.711-2.432
			c-1.945-1.653-3.016-3.793-3.113-6.322c-0.097-2.529,0.584-4.669,2.141-6.518c0.777-1.069,1.556-1.75,2.626-2.236
			c0.973-0.486,1.945-0.778,3.016-0.876c-1.265-2.918-3.308-5.155-6.128-6.711c-2.529-1.362-5.059-2.043-7.685-1.849
			c-2.626,0.098-5.155,0.876-7.587,2.14c-2.432,1.265-4.766,3.016-6.906,5.059c-2.14,2.14-3.987,4.377-5.544,6.906
			c-1.653,2.432-2.918,4.863-3.599,7.489c-0.778,2.529-1.07,4.961-0.876,7.198c0.194,2.236,0.778,4.279,1.849,6.03
			c1.069,1.848,2.626,3.21,4.669,4.279c2.82,0.098,5.836,0.486,9.046,1.265c1.361,0.292,2.432,0.876,3.112,1.654
			c0.681,0.875,0.973,1.653,0.875,2.528c0,0.876-0.486,1.557-1.361,2.141C454.697,307.951,453.432,308.145,451.876,307.853z"/>
		<path fill="#FFFFFF" d="M474.442,314.565c1.362-1.557,2.627-3.308,3.6-5.155c1.069-1.849,1.945-3.6,2.626-5.253
			c0.778-1.653,1.361-3.112,1.751-4.475c0.389-1.264,0.681-2.236,0.875-2.82c0-0.292,0-0.486,0.098-0.681h9.921
			c-0.292,1.556-0.486,3.501-0.583,5.642c-0.098,2.14-0.195,4.474-0.098,6.906l11.867-12.548h6.419l-17.702,19.259
			c0.486,2.432,1.167,4.475,2.14,6.128s2.334,2.529,3.988,2.529c0.681,0,1.459-0.292,2.334-0.973
			c0.973-0.681,1.945-1.459,2.918-2.432c1.07-0.973,2.043-2.043,3.112-3.113c1.07-1.069,2.043-2.042,2.918-3.015
			c1.07-1.07,2.043-1.653,2.821-1.945s1.361-0.292,1.848,0c0.39,0.292,0.584,0.778,0.584,1.361c0,0.681-0.389,1.362-1.07,2.237
			c-3.501,4.961-6.809,8.948-9.823,11.964c-3.016,3.016-5.837,4.669-8.561,4.767c-2.432,0.194-4.474-0.584-6.322-2.335
			c-1.75-1.751-3.209-4.085-4.474-7.003l-8.657,9.338h-7.393l14.201-15.077c-0.681-2.528-1.069-5.155-1.265-7.976
			c-0.681,1.167-1.264,2.334-1.945,3.404c-0.681,1.07-1.361,2.043-2.14,2.82c-1.07,1.168-2.14,1.945-2.918,2.237
			s-1.459,0.292-1.945,0s-0.681-0.778-0.584-1.556C473.275,316.121,473.761,315.344,474.442,314.565z"/>
		<path fill="#FFFFFF" d="M567.041,342.676H533.97l-2.918,8.657h-10.894l3.209-8.657h-7.684l2.237-6.42h7.684l3.794-10.505
			c-2.432,2.626-4.961,4.571-7.685,5.934c-2.724,1.361-5.058,1.556-7.101,0.583c-1.459-0.681-2.724-1.653-3.599-3.112
			c-0.876-1.459-1.459-3.21-1.653-5.252c-0.195-2.043-0.098-4.28,0.486-6.81c0.583-2.432,1.556-5.058,3.112-7.878
			c1.069-2.043,2.237-3.988,3.793-5.837c1.459-1.848,3.113-3.404,4.767-4.669c1.653-1.264,3.404-2.236,5.252-2.918
			c1.849-0.681,3.6-0.875,5.253-0.681c2.918,0.292,5.155,1.653,6.809,4.085c0.194-0.486,0.39-0.875,0.486-1.264
			c0.098-0.39,0.292-0.682,0.39-0.973c0.097-0.39,0.194-0.682,0.291-0.876h9.922c-1.557,4.669-3.21,9.338-4.767,13.91
			c-1.265,3.987-2.724,8.364-4.279,12.937c-1.557,4.669-3.112,9.046-4.475,13.131h33.169L567.041,342.676z M534.164,311.355
			c1.557-3.21,2.141-5.836,1.557-7.587c-0.584-1.849-1.849-2.627-3.794-2.627c-1.556,0.195-3.21,1.168-4.766,2.919
			c-1.653,1.75-3.112,4.085-4.377,6.809c-0.778,1.653-1.362,3.307-1.945,5.058c-0.584,1.654-0.973,3.21-1.265,4.572
			c-0.292,1.361-0.389,2.528-0.389,3.501s0.291,1.459,0.777,1.654c1.07,0.486,2.141,0.291,3.502-0.584
			c1.265-0.875,2.626-2.043,3.988-3.502c1.361-1.459,2.626-3.112,3.793-5.058C532.413,314.76,533.386,313.009,534.164,311.355z"/>
		<path fill="#FFFFFF" d="M553.229,308.437c0.778-1.849,1.557-3.6,2.335-5.059s1.556-2.82,2.237-3.793
			c0.777-1.167,1.459-2.335,2.236-3.308h9.922c-0.681,1.168-1.265,2.432-1.945,3.6c-1.167,2.236-2.335,4.474-3.308,6.711
			c-0.875,1.654-1.75,3.6-2.626,5.837c-0.973,2.236-1.751,4.377-2.334,6.419c-0.682,2.043-0.973,3.794-1.07,5.155
			c0,1.362,0.486,2.141,1.459,2.141s2.043-0.778,3.21-2.237s2.432-3.404,3.794-5.642c1.264-2.237,2.626-4.767,3.793-7.393
			c1.265-2.626,2.432-5.155,3.404-7.49c0.486-1.167,0.875-2.237,1.167-3.112s0.584-1.557,0.876-2.237
			c0.389-0.681,0.681-1.265,0.875-1.848h9.727c-0.875,2.82-1.653,5.35-2.528,7.781c-0.778,2.14-1.459,4.28-2.14,6.322
			c-0.682,2.141-1.265,3.696-1.557,4.767c-0.389,1.069-0.778,2.237-1.07,3.307c-0.389,1.07-0.681,2.043-0.875,2.821
			s-0.292,1.459-0.389,1.945c0,0.486,0.097,0.778,0.486,0.778c0.875,0,1.75-0.292,2.723-0.876c0.973-0.583,2.043-1.265,3.113-2.237
			c1.069-0.973,2.236-1.945,3.307-3.112c1.07-1.07,2.237-2.14,3.308-3.21c1.069-1.069,2.042-1.653,2.82-1.945s1.362-0.292,1.849,0
			c0.389,0.292,0.583,0.778,0.583,1.362c0,0.681-0.389,1.361-1.069,2.236c-2.335,3.21-4.767,5.934-7.393,8.365
			c-2.237,2.141-4.767,4.086-7.49,5.836c-2.82,1.751-5.641,2.627-8.462,2.627c-2.432,0-3.988-0.682-4.767-1.945
			c-0.777-1.265-1.069-2.918-0.875-4.863c-1.557,2.042-3.21,3.695-4.863,4.96s-3.308,1.849-4.863,1.849
			c-2.724,0-4.669-0.682-5.934-2.043s-1.945-3.112-2.14-5.35c-0.098-2.237,0.194-4.863,1.069-7.781
			C550.603,314.76,551.77,311.647,553.229,308.437z"/>
		<path fill="#FFFFFF" d="M612.951,314.565c1.07-1.07,1.945-1.653,2.821-1.945c0.875-0.292,1.459-0.292,1.848,0
			c0.39,0.292,0.584,0.778,0.584,1.361c0,0.681-0.39,1.362-1.07,2.237c-2.432,3.21-4.96,5.934-7.489,8.365
			c-2.237,2.14-4.767,4.085-7.49,5.836c-2.82,1.751-5.641,2.626-8.656,2.626c-2.141,0-3.6-0.583-4.377-1.751
			c-0.778-1.167-1.168-2.626-1.07-4.279c0.098-1.751,0.486-3.599,1.07-5.642c0.681-2.043,1.361-3.988,2.14-5.836
			c1.848-4.961,3.404-8.852,4.571-11.867c1.168-3.016,1.945-5.058,2.432-6.322c1.654,2.14,3.988,3.21,7.004,3.21
			c0.973,0,1.653,0,2.14-0.098l-5.058,14.785c-0.778,2.237-1.459,4.28-2.043,6.03c-0.584,1.849-0.584,2.724,0.194,2.724
			c0.876,0,1.751-0.292,2.724-0.875c0.973-0.584,2.043-1.265,3.112-2.237c1.07-0.973,2.237-1.945,3.308-3.112
			C610.714,316.607,611.882,315.538,612.951,314.565z M611.882,290.928c0,1.849-0.682,3.404-1.946,4.767
			c-1.264,1.265-2.918,1.945-4.766,1.945s-3.404-0.681-4.766-1.945c-1.265-1.265-1.946-2.918-1.946-4.767
			c0-1.848,0.682-3.404,1.946-4.766c1.264-1.265,2.918-1.945,4.766-1.945s3.404,0.681,4.766,1.945
			C611.2,287.524,611.882,289.081,611.882,290.928z"/>
		<path fill="#FFFFFF" d="M619.079,306.492c-0.778-1.459-0.778-3.21-0.194-5.253s1.557-3.793,2.82-5.544
			c1.265-1.654,2.724-2.918,4.28-3.794c1.653-0.875,3.112-0.973,4.571-0.194c1.362,0.778,1.945,1.848,1.557,3.307
			c-0.292,1.46-0.973,3.016-2.043,4.572c-1.069,1.751-2.626,3.696-4.474,5.738c0.875,0.486,1.848,1.168,3.015,2.043
			c1.168,0.876,2.237,1.945,3.308,3.308c1.069,1.265,1.945,2.724,2.626,4.377c0.778,1.653,1.07,3.404,1.07,5.252
			c0,0.39,0,0.682-0.098,0.973c0,0.292-0.098,0.584-0.098,0.876c1.46-1.167,2.919-2.529,4.378-3.794
			c1.459-1.361,2.724-2.626,3.987-3.696c1.07-1.069,2.043-1.653,2.821-1.945c0.778-0.291,1.361-0.291,1.848,0
			c0.39,0.292,0.584,0.778,0.584,1.362c0,0.681-0.39,1.361-1.07,2.237c-2.334,2.528-4.669,4.863-7.101,7.101
			c-2.14,1.848-4.571,3.696-7.197,5.446c-2.627,1.751-5.35,3.016-7.977,3.794c-1.75,0.389-3.599,0.486-5.544,0.389
			c-2.043-0.194-3.696-0.875-4.863-1.945c-1.167-1.069-1.945-2.334-2.335-3.696c-0.291-1.361-0.194-2.626,0.39-3.793
			c0.583-1.167,1.751-1.849,3.404-2.14c1.945-0.292,3.112,0,3.404,0.681c0.292,0.778,0.389,1.653,0.097,2.724
			c-0.194,1.069-0.389,2.14-0.583,3.112s0.389,1.557,1.459,1.557c1.167,0.097,2.14-0.486,2.724-1.557
			c0.583-1.167,0.875-2.626,0.875-4.571c0-1.849-0.291-3.891-0.875-6.226c-0.584-2.237-1.362-4.475-2.529-6.614l-4.475,5.739
			c-1.069,1.264-1.945,2.14-2.723,2.432c-0.778,0.292-1.459,0.292-1.849,0c-0.486-0.292-0.681-0.876-0.583-1.654
			c0-0.777,0.389-1.556,1.069-2.432L619.079,306.492z"/>
		<path fill="#FFFFFF" d="M693.49,290.15h-8.754l-8.462,24.998c-0.778,2.237-1.46,4.28-2.043,6.031
			c-0.584,1.848-0.584,2.724-0.098,2.724c0.876,0,1.751-0.292,2.821-0.876c1.069-0.583,2.14-1.265,3.21-2.237
			c1.069-0.973,2.236-1.945,3.307-3.112c1.07-1.07,2.14-2.14,3.21-3.21c1.07-1.069,2.14-1.653,2.918-1.945
			c0.876-0.292,1.459-0.292,1.849,0c0.389,0.292,0.583,0.778,0.486,1.362c-0.098,0.681-0.486,1.361-1.07,2.236
			c-2.432,3.21-4.863,5.934-7.393,8.365c-2.237,2.141-4.766,4.086-7.489,5.836c-2.724,1.751-5.642,2.627-8.56,2.627
			c-2.724,0-4.377-0.778-4.961-2.432c-0.584-1.654-0.681-3.6-0.194-5.934c-2.335,2.14-4.863,4.085-7.685,5.836
			c-2.82,1.751-5.642,2.626-8.656,2.626c-2.141,0-3.6-0.583-4.377-1.751c-0.778-1.167-1.168-2.626-1.07-4.279
			c0.098-1.751,0.486-3.599,1.07-5.642c0.681-2.043,1.361-3.988,2.14-5.836c1.848-4.961,3.404-8.852,4.571-11.867
			s1.945-5.058,2.432-6.322c1.653,2.14,3.988,3.21,7.004,3.21c0.973,0,1.653,0,2.14-0.098l-5.058,14.785
			c-0.778,2.237-1.46,4.28-2.043,6.03c-0.584,1.849-0.584,2.724,0.194,2.724c0.876,0,1.751-0.291,2.724-0.875
			s2.043-1.265,3.112-2.237c1.07-0.973,2.237-1.945,3.308-3.112c1.069-1.07,2.236-2.141,3.307-3.21
			c1.167-3.21,2.627-7.101,4.183-11.478c1.557-4.378,3.112-8.755,4.571-12.938h-7.392l2.334-6.517h7.393
			c0.486-1.459,0.973-2.82,1.361-4.085c0.486-1.167,0.876-2.237,1.265-3.21c0.39-1.07,0.681-1.945,0.973-2.821h10.019
			c-0.292,0.973-0.583,1.945-0.973,2.919c-0.583,1.848-1.361,4.279-2.334,7.1h8.754L693.49,290.15z M664.309,290.928
			c0,1.849-0.681,3.404-1.945,4.767c-1.264,1.265-2.918,1.945-4.766,1.945c-1.849,0-3.404-0.681-4.767-1.945
			c-1.265-1.265-1.945-2.918-1.945-4.767c0-1.848,0.681-3.404,1.945-4.766c1.265-1.265,2.918-1.945,4.767-1.945
			c1.848,0,3.404,0.681,4.766,1.945C663.628,287.524,664.309,289.081,664.309,290.928z"/>
		<path fill="#FFFFFF" d="M708.371,296.084c2.141,0,3.891,0.486,5.253,1.459c1.361,0.973,2.432,2.335,3.112,3.988
			s0.973,3.599,0.875,5.836c-0.097,2.237-0.681,4.572-1.556,7.101l-0.876,1.945c2.141,0.584,4.183-0.097,6.031-1.945
			c1.07-1.069,1.945-1.653,2.724-1.945s1.361-0.292,1.848,0c0.39,0.292,0.584,0.778,0.584,1.362c0,0.681-0.292,1.361-0.973,2.236
			c-1.265,1.751-3.112,3.113-5.35,4.086s-4.475,1.167-6.81,0.681c-1.848,3.502-4.182,6.42-6.809,8.657
			c-2.724,2.236-5.738,3.307-9.046,3.307c-2.14,0-4.085-0.486-5.738-1.459c-1.654-0.973-3.016-2.334-3.988-3.988
			c-0.973-1.653-1.557-3.599-1.849-5.836c-0.194-2.237,0-4.571,0.778-7.101c0.778-2.528,1.849-4.863,3.21-7.101
			c1.362-2.237,3.016-4.183,4.961-5.836s3.988-3.016,6.322-3.988C703.314,296.57,705.745,296.084,708.371,296.084z M707.399,317.58
			c-0.875-1.069-1.265-2.236-1.361-3.599c-0.098-1.361,0.097-2.724,0.681-3.891s1.362-2.237,2.335-3.016
			c1.069-0.778,2.236-1.069,3.599-0.875c0.097-2.821-0.876-4.475-2.821-5.059c-1.556-0.389-3.501,0.584-5.642,2.821
			c-2.14,2.237-4.183,5.836-6.03,10.505c-1.167,3.21-1.945,6.128-2.14,8.754c-0.194,2.529,0.389,4.086,1.653,4.572
			c1.848,0.681,3.696,0,5.642-1.849c1.945-1.848,3.599-4.183,5.058-7.101L707.399,317.58z"/>
	</g>
</g>
</svg>
