<?xml version="1.0" encoding="utf-8"?>
<!-- Generator: Adobe Illustrator 16.0.0, SVG Export Plug-In . SVG Version: 6.00 Build 0)  -->
<!DOCTYPE svg PUBLIC "-//W3C//DTD SVG 1.1//EN" "http://www.w3.org/Graphics/SVG/1.1/DTD/svg11.dtd">
<svg version="1.1" id="Layer_1" xmlns="http://www.w3.org/2000/svg" xmlns:xlink="http://www.w3.org/1999/xlink" x="0px" y="0px"
	 width="85px" height="39.73px" viewBox="30.626 0 85 39.73" enable-background="new 30.626 0 85 39.73" xml:space="preserve">
<polygon fill="#F5F7F7" points="72.807,27.527 72.807,14.406 67.303,14.406 67.303,12.188 81.378,12.188 81.378,14.406 
	75.875,14.406 75.875,27.527 "/>
<rect x="83.544" y="12.187" fill="#F5F7F7" width="3.068" height="15.34"/>
<polygon fill="#F5F7F7" points="100.817,27.527 91.901,16.587 91.901,27.527 88.833,27.527 88.833,12.188 91.778,12.188 
	100.417,22.645 100.417,12.188 103.487,12.188 103.487,27.527 "/>
<path fill="#F5F7F7" d="M60.565,27.517c-2.553,0-4.609-0.739-6.111-2.194c-1.498-1.454-2.258-3.271-2.258-5.404
	c0-2.131,0.801-3.966,2.383-5.452c1.588-1.492,3.699-2.249,6.275-2.249c1.924,0,3.588,0.387,4.953,1.149l-1.191,2.126
	c-1.203-0.483-2.377-0.729-3.494-0.729c-1.676,0-3.07,0.479-4.145,1.424c-1.086,0.955-1.637,2.188-1.637,3.664
	c0,1.481,0.541,2.724,1.611,3.688c1.061,0.957,2.432,1.441,4.074,1.441c0.803,0,1.59-0.111,2.332-0.332
	c0.336-0.1,0.75-0.254,1.229-0.461l1.197,2.082C64.12,27.098,62.366,27.517,60.565,27.517"/>
<path fill="#F5F7F7" d="M60.534,22.635c-1.457,0-2.643-1.242-2.643-2.769c0-1.527,1.186-2.77,2.643-2.77
	c1.459,0,2.645,1.241,2.645,2.77C63.178,21.393,61.993,22.635,60.534,22.635"/>
<path fill="#F5F7F7" d="M50.239,31.615c-0.795,0-1.562-0.347-2.107-0.951c-1.026-1.138-0.977-2.85,0.109-3.818
	c0.467-0.416,1.076-0.646,1.719-0.646c0.793,0,1.562,0.346,2.107,0.95c0.498,0.554,0.76,1.258,0.738,1.979
	c-0.023,0.719-0.324,1.37-0.848,1.837C51.491,31.385,50.879,31.615,50.239,31.615"/>
<path fill="#F5F7F7" d="M49.543,37.012c-0.104,0-0.205-0.002-0.309-0.006c-2.091-0.087-3.877-0.936-5.309-2.521
	c-1.431-1.586-2.065-3.484-1.887-5.643c0.181-2.166,1.243-4.131,3.162-5.842c1.396-1.247,2.858-2.057,4.352-2.408
	c0.117,0.821,0.32,1.614,0.604,2.368c-1.205,0.438-2.229,1.027-3.047,1.757c-1.248,1.113-1.964,2.396-2.13,3.812
	c-0.168,1.435,0.25,2.718,1.241,3.815c0.994,1.104,2.231,1.666,3.676,1.675c1.453,0,2.787-0.549,4.002-1.632
	c0.6-0.534,1.107-1.14,1.514-1.798c0.203-0.331,0.434-0.78,0.686-1.338c0.713,0.319,1.477,0.573,2.277,0.756
	c-0.684,1.799-1.73,3.336-3.119,4.574C53.45,36.194,51.528,37.012,49.543,37.012"/>
<path fill="#F5F7F7" d="M49.571,19.145c-1.498-0.35-2.966-1.159-4.371-2.412c-1.917-1.712-2.981-3.678-3.161-5.843
	c-0.179-2.157,0.456-4.056,1.886-5.642c1.433-1.587,3.219-2.436,5.31-2.522c0.104-0.004,0.207-0.007,0.309-0.007
	c1.984,0,3.906,0.818,5.713,2.432c1.404,1.252,2.459,2.811,3.143,4.636c-0.787,0.195-1.543,0.462-2.254,0.793
	c-0.271-0.604-0.518-1.086-0.734-1.438c-0.404-0.657-0.914-1.263-1.512-1.797c-1.215-1.083-2.549-1.632-3.967-1.632
	c-1.48,0.009-2.717,0.572-3.711,1.675c-0.991,1.099-1.408,2.383-1.24,3.815c0.165,1.416,0.882,2.698,2.129,3.812
	c0.833,0.742,1.874,1.34,3.102,1.779C49.915,17.542,49.7,18.329,49.571,19.145"/>
<path fill="#F5F7F7" d="M49.959,13.533c-0.641,0-1.252-0.229-1.719-0.647c-0.523-0.467-0.825-1.12-0.848-1.837
	c-0.022-0.724,0.239-1.427,0.739-1.979c0.545-0.604,1.312-0.95,2.107-0.95c0.641,0,1.252,0.229,1.719,0.646
	c1.086,0.969,1.135,2.681,0.109,3.818C51.52,13.186,50.752,13.533,49.959,13.533"/>
</svg>
