<?xml version="1.0" encoding="utf-8"?>
<!-- Generator: Adobe Illustrator 16.0.0, SVG Export Plug-In . SVG Version: 6.00 Build 0)  -->
<!DOCTYPE svg PUBLIC "-//W3C//DTD SVG 1.1//EN" "http://www.w3.org/Graphics/SVG/1.1/DTD/svg11.dtd">
<svg version="1.1" id="Layer_1" xmlns="http://www.w3.org/2000/svg" xmlns:xlink="http://www.w3.org/1999/xlink" x="0px" y="0px"
	 width="150.253px" height="39.731px" viewBox="0 0 150.253 39.731" enable-background="new 0 0 150.253 39.731"
	 xml:space="preserve">
<path fill="#EBEDED" d="M57.043,4.647h1.323l0.916,2.597c0.306,0.864,0.408,1.425,0.408,1.425h0.051c0,0,0.102-0.561,0.407-1.425
	l0.916-2.597h1.271l0.561,4.428h-0.865L61.726,6.53c-0.102-0.813-0.102-1.374-0.102-1.374h-0.051c0,0-0.153,0.611-0.407,1.374
	L60.25,9.075h-1.118L58.215,6.53c-0.307-0.763-0.408-1.374-0.408-1.374h-0.051c0,0,0,0.561-0.102,1.374l-0.306,2.545h-0.916
	L57.043,4.647z"/>
<path fill="#EBEDED" d="M67.02,6.887V4.648h0.915v2.188c0,1.374,0.103,1.731,1.12,1.731c1.019,0,1.17-0.307,1.17-1.731V4.648h0.917
	v2.188c0,1.731-0.306,2.24-2.087,2.24C67.325,9.126,67.02,8.617,67.02,6.887"/>
<path fill="#EBEDED" d="M75.417,8.516c0,0,0.611,0.051,1.374,0.051c1.12,0,1.374-0.102,1.374-0.61c0-0.407-0.049-0.509-0.559-0.662
	l-1.222-0.305c-0.916-0.203-1.12-0.458-1.12-1.172c0-0.916,0.51-1.221,2.086-1.221c0.715,0,1.375,0.103,1.375,0.103v0.56
	c0,0-0.609-0.051-1.271-0.051c-1.019,0-1.274,0.102-1.274,0.609c0,0.408,0.103,0.51,0.561,0.611l1.221,0.306
	c0.967,0.203,1.07,0.51,1.07,1.222c0,0.916-0.561,1.222-2.087,1.222c-0.814,0-1.527-0.102-1.527-0.102V8.516z"/>
<polygon fill="#EBEDED" points="83.255,4.647 86.563,4.647 86.563,5.208 84.222,5.208 84.222,6.479 86.36,6.479 86.36,7.04 
	84.222,7.04 84.222,8.516 86.563,8.516 86.563,9.075 83.255,9.075 "/>
<path fill="#EBEDED" d="M90.585,6.887c0-1.832,0.305-2.29,2.139-2.29c1.832,0,2.137,0.458,2.137,2.29s-0.305,2.239-2.137,2.239
	C90.89,9.126,90.585,8.719,90.585,6.887 M93.944,6.887c0-1.476-0.051-1.729-1.221-1.729c-1.121,0-1.172,0.254-1.172,1.729
	c0,1.477,0.051,1.73,1.172,1.73C93.841,8.567,93.944,8.363,93.944,6.887"/>
<path fill="#EBEDED" d="M24.267,26.584c-2.748,0-5.242-0.662-6.973-1.832c-0.661-0.458-0.916-0.916-0.763-1.374
	c0.152-0.408,0.661-0.764,1.221-0.764c0.255,0,0.509,0.051,0.713,0.204c1.323,0.916,4.988,1.577,6.82,1.577h0.203
	c4.887-0.152,6.973-3.054,7.635-4.275c0.713-1.272,0.865-2.596,0.458-3.206c-0.356-0.509-1.069-0.713-2.29-0.713
	c-0.407,0-0.815,0.051-1.171,0.051h-0.102c-0.305,0-0.61,0.051-0.865,0.051h-0.051h-0.865c-1.731,0-3.919,0-5.293-0.916
	c-0.662-0.458-1.018-1.018-0.967-1.68c0.051-1.883,3.155-4.072,4.326-4.784C28.694,7.549,36.939,4.24,41.011,4.24
	c0.611,0,1.069,0.051,1.426,0.204c0.406,0.152,0.61,0.713,0.458,1.476c-0.204,1.272-0.865,3.207-2.546,3.359H39.84
	c-1.577-0.152-0.509-1.12-0.356-1.374c0.205-0.306,0.408-0.713,0.256-0.916c-0.204-0.204-0.408-0.255-0.917-0.255
	c-2.901,0-10.688,3.461-11.96,4.428c-0.662,0.458-2.087,1.629-1.833,2.393c0.153,0.407,0.713,0.61,1.782,0.61h0.102
	c0.712-0.051,1.628-0.051,2.544-0.051c1.426,0,2.698,0.051,3.869,0.255c1.425,0.203,2.392,0.813,2.799,1.883
	c0.712,1.883-0.407,4.835-1.934,6.464c-1.832,1.935-4.886,3.41-7.991,3.817C25.539,26.533,24.929,26.584,24.267,26.584"/>
<path fill="#EBEDED" d="M100.509,35.49L100.509,35.49c-0.711,0-1.424-0.305-1.832-0.864c-0.406-0.51-0.611-1.12-0.611-1.832
	c0-1.273,0.561-2.698,1.629-4.123c1.273-1.628,3.105-3.155,5.447-4.58c0.814-0.458,1.678-0.967,2.596-1.477v-0.051
	c0,0,0.051-0.051,0.051-0.102c0.051-0.052,0.051-0.103,0.102-0.204l0.152-0.306l-0.305,0.153c-0.561,0.356-1.068,0.61-1.578,0.865
	c-0.764,0.355-1.578,0.712-2.494,0.763h-0.051c-0.203,0-0.355,0-0.51-0.051c-0.355-0.05-0.711-0.203-1.068-0.458
	c-0.203-0.152-0.406-0.407-0.457-0.661l-0.053-0.102l-0.102,0.051c-1.627,0.916-4.121,2.137-6.412,2.188h-0.102h-0.51
	c-0.203,0-0.713-0.101-1.068-0.509c-0.355-0.355-0.406-0.763-0.406-0.967v-0.051l-0.051-0.05c-0.053,0-0.104-0.052-0.154-0.052
	c-0.203,0-0.508,0.203-0.865,0.407c-0.254,0.153-0.508,0.305-0.764,0.458c-0.916,0.458-1.627,0.662-2.188,0.662
	c-0.305,0-0.51-0.051-0.713-0.153c-0.764-0.509-0.662-1.476-0.51-1.984V22.41l-0.049-0.051c0,0-0.051-0.051-0.104-0.051
	c-0.102,0-0.254,0.051-0.66,0.204c-3.258,1.271-5.498,1.781-5.904,1.883c-0.51,0.102-0.865,0.153-1.172,0.153
	c-0.508,0-0.764-0.153-0.967-0.611c-0.203-0.407,0-0.916,0.203-1.425c0.154-0.407,0.307-0.815,0.104-0.967
	c-0.104-0.052-0.205-0.103-0.357-0.103c-1.17,0-4.529,1.883-4.936,2.139l-0.051,0.051c-0.408,0.254-1.426,0.864-2.393,0.864
	c-0.356,0-0.611-0.102-0.866-0.255c-0.458-0.305-0.355-0.916,0.407-2.035l0.153-0.152c0.306-0.357,0.509-0.662,0.407-0.865
	c0-0.051-0.102-0.102-0.203-0.102c-0.204,0-0.51,0.203-1.019,0.509c-0.255,0.152-0.458,0.305-0.662,0.407l-0.102,0.051
	c-1.883,0.967-2.595,1.323-4.682,2.137c-0.256,0.103-1.12,0.408-1.884,0.408c-0.662,0-1.068-0.255-1.171-0.713
	c-0.102-0.662,0.153-1.171,0.713-2.087c0.102-0.152,0.152-0.306,0.255-0.458c0-0.051,0.051-0.103,0-0.203
	c0,0-0.052-0.051-0.103-0.051c-0.203,0-0.559,0.355-1.374,0.763c-5.648,2.901-7.685,3.003-8.194,3.003
	c-0.56,0-0.967-0.102-1.171-0.305c-0.355-0.307-0.254-0.662-0.203-0.866c0.051-0.152,0.051-0.203,0-0.305
	c0,0-0.051-0.052-0.102-0.052s-0.102,0-0.204,0.052c-0.254,0.102-0.509,0.255-0.813,0.406c-0.611,0.307-1.273,0.662-1.832,0.865
	c-0.51,0.204-1.172,0.408-1.833,0.408c-0.356,0-0.661-0.051-0.968-0.204c-0.813-0.407-0.763-1.425-0.609-1.832l0.101-0.255
	c0,0-0.355,0.153-1.067,0.153c-0.714,0-1.477-0.204-1.477-0.204s-0.764,0.866-1.323,1.272c-0.356,0.254-1.324,1.019-2.851,1.222
	c-0.204,0.051-0.407,0.051-0.61,0.051c-0.764,0-1.375-0.203-1.73-0.661c-1.222-1.476,0.203-3.461,0.763-4.276
	c3.31-4.835,6.26-3.562,6.77-3.41c1.171,0.407,1.476,1.223,0.61,3.309c-0.203,0.408-0.56,0.917-0.509,0.917
	c0.255,0.051,1.476,0.101,2.24-0.408c0.101-0.05,0.355-0.355,1.221-1.577c0.764-1.018,1.578-1.629,2.545-1.782
	c0.305-0.051,0.713,0.052,0.865,0.256c0.102,0.151,0.153,0.305,0.051,0.56c-0.102,0.407-0.254,0.61-0.712,1.068
	c-0.204,0.255-0.509,0.56-0.866,1.018l-0.101,0.103c-0.561,0.661-1.069,1.374-0.917,1.68c0.051,0.051,0.102,0.152,0.356,0.152h0.152
	c1.273-0.203,2.647-1.018,3.41-1.73l0.509-0.458c0.713-0.662,1.069-0.967,1.578-1.476c0.357-0.356,1.374-1.172,2.138-1.172
	c0.103,0,0.153,0,0.254,0.052c0.561,0.152,0.916,0.355,0.968,0.662c0.102,0.406-0.203,0.813-0.51,1.068
	c-0.458,0.407-0.712,0.61-0.916,0.764c-0.203,0.203-0.305,0.255-0.509,0.458c-0.712,0.713-0.916,1.018-0.865,1.222
	c0,0.051,0.052,0.101,0.103,0.152c0.102,0.051,0.203,0.102,0.355,0.102c0.865,0,2.545-0.967,4.175-1.832
	c0.763-0.407,1.476-0.814,2.035-1.069l0.56-0.254c1.171-0.56,2.138-1.018,3.003-1.068h0.153c0.56,0,1.322,0.254,1.577,0.61
	c0.103,0.152,0.152,0.356,0,0.56c0,0.051-0.051,0.102-0.152,0.255c-0.611,0.916-0.967,1.578-0.764,1.832
	c0.052,0.051,0.152,0.102,0.203,0.102c0.815,0,3.868-1.73,5.345-2.698c0.764-0.559,1.781-0.916,2.596-0.916
	c0.407,0,0.763,0.103,1.069,0.307c0.355,0.254,0.152,0.763-0.052,1.221s-0.355,0.865-0.051,1.069c0.051,0,0.103,0.051,0.153,0.051
	c0.407,0,1.78-0.56,3.054-1.12c0.102-0.051,0.203-0.102,0.254-0.102c0.355-0.152,0.764-0.356,1.119-0.56
	c0.967-0.459,1.934-0.968,2.953-0.968h0.102c0.355,0,0.711,0.255,0.916,0.662c0.152,0.355,0.152,0.713-0.051,1.018
	c-0.051,0.052-0.154,0.153-0.205,0.255c-0.559,0.661-1.018,1.323-0.865,1.68c0.104,0.255,0.307,0.355,0.611,0.355
	c0.459,0,1.17-0.254,1.883-0.559l0.357-0.153c1.424-0.56,2.9-1.222,4.174-1.832c1.119-0.509,2.137-0.967,2.697-1.171
	c0.713-0.204,1.578-0.355,2.291-0.355c0.559,0,0.967,0.101,1.17,0.305s0.406,0.305,0.611,0.305c0.152,0,0.305-0.05,0.457-0.05
	c0.152-0.051,0.355-0.102,0.51-0.102h0.203c0.305,0.051,0.559,0.305,0.609,0.61s-0.051,0.61-0.305,0.814
	c-0.102,0.102-0.254,0.152-0.406,0.254c-0.051,0.102-0.102,0.153-0.154,0.204c-0.254,0.254-0.812,0.916-1.322,1.629
	c-0.203,0.305-0.457,0.661-0.662,1.018l-0.102,0.152h0.203c1.223-0.152,2.953-0.814,4.684-1.781
	c1.781-0.967,3.357-2.087,3.918-2.494c0.152-0.102,0.256-0.204,0.256-0.204c0.203-0.151,0.406-0.202,0.662-0.202
	c0.305,0,0.559,0.102,0.762,0.305c0.408,0.355,0.408,0.967,0.051,1.374c-0.355,0.356-0.662,0.764-1.018,1.069
	c-0.203,0.203-0.355,0.355-0.508,0.509c-0.104,0.102-0.154,0.204-0.256,0.255l-0.203,0.254l0.305-0.102
	c0.154-0.052,0.307-0.102,0.51-0.152c0.457-0.204,1.018-0.458,1.629-0.815c1.221-0.712,2.443-1.578,3.055-2.036
	c0.457-0.355,0.812-0.609,0.812-0.609c0.205-0.153,0.408-0.204,0.662-0.204s0.459,0.051,0.662,0.204
	c0.408,0.305,0.508,0.763,0.305,1.221c-0.203,0.407-0.406,0.865-0.609,1.273l-0.104,0.254l0.256-0.153
	c0.814-0.458,1.527-0.813,2.086-1.119c0.561-0.306,1.018-0.509,1.375-0.662l0.051-0.051c2.443-1.271,4.479-0.967,5.191-0.509
	c0.814,0.509,0.662,1.171,0,1.272c-0.355,0.051-0.814-0.102-1.68-0.051c-0.662,0.051-3.105,0.356-3.055,2.138
	c0,0.356,0.307,0.56,0.814,0.56c0.611,0,1.375-0.356,1.883-0.611c0.713-0.355,1.832-1.018,2.24-1.018
	c0.662-0.05,0.814,0.204,1.119,0.459c0.867,0.661,1.834-0.255,2.699-0.459c1.373-0.356,5.902,0.153,7.48,0.255
	c1.477,0.051,2.902,0.204,4.225,0.356c1.477,0.152,1.883,0.406,1.883,0.509c0,0.102-0.457,0.355-1.832,0.458
	c-0.713,0.051-1.373,0-2.189,0c0,0-6.615-0.203-7.328-0.254c-0.967-0.052-1.477-0.204-2.291,0.355
	c-0.203,0.153-0.967,0.611-2.188,0.662c-0.662,0.051-1.17-0.153-1.477-0.407c0,0-0.254-0.152-0.459,0
	c-0.201,0.152-2.238,1.426-4.02,1.426c-0.408,0-0.865-0.052-1.221-0.153c-1.07-0.255-1.426-1.477-1.375-1.781l0.051-0.204
	l-0.203,0.103c-0.408,0.203-0.814,0.458-1.221,0.661c-0.867,0.459-1.834,1.018-2.801,1.577v0.052c0,0,0,0.051-0.051,0.051
	c-0.051,0.051-0.051,0.102-0.102,0.204c-0.102,0.151-0.203,0.406-0.357,0.661c-0.1,0.255-0.254,0.509-0.406,0.764
	c-0.203,0.407-0.406,0.813-0.662,1.271c-0.764,1.527-1.781,3.462-2.951,5.142c-0.611,0.865-1.426,1.934-2.393,2.646
	c-0.609,0.407-1.17,0.611-1.781,0.662L100.509,35.49z M105.853,26.024l-0.305,0.203c-1.781,1.12-3.256,2.392-4.172,3.614
	c-1.172,1.578-1.273,2.646-1.273,2.9c0,0.306,0.102,0.51,0.152,0.611l0.051,0.051c0.051,0.051,0.102,0.051,0.203,0.051
	s0.256-0.051,0.459-0.203c0.254-0.153,0.559-0.407,0.865-0.714c0.609-0.66,1.271-1.576,1.984-2.747
	c0.561-0.968,1.17-2.036,1.883-3.462L105.853,26.024z M39.383,20.477c0,0-1.629,1.629-1.324,2.545
	c0.153,0.356,0.713,0.561,1.476,0.254c0.561-0.203,1.578-1.119,1.578-1.119s-0.865-0.407-1.373-0.917
	c-0.459-0.458-0.459-0.916-0.459-0.916L39.383,20.477z M93.739,19.204c-1.271,0-3.512,1.426-3.816,2.443
	c-0.102,0.305-0.102,0.56,0.051,0.661c0.102,0.102,0.203,0.153,0.357,0.153c0.863,0,2.748-1.323,2.748-1.374
	c0.152-0.103,1.576-1.171,1.426-1.527C94.401,19.356,94.147,19.204,93.739,19.204 M42.182,18.491
	c-0.56,0.052-1.171,0.458-1.374,0.764c-0.102,0.102,0,0.407,0.355,0.764c0.459,0.458,1.375,0.763,1.375,0.763
	c0.458-0.509,0.713-1.374,0.56-1.832C42.945,18.745,42.539,18.491,42.182,18.491"/>
<path fill="#EBEDED" d="M63.507,31.674c0.153-0.051,0.153-0.254,1.12-0.051c0.967,0.204,1.019,0.509,0.967,0.509
	c-0.203,0-1.272-0.407-2.291-0.305c-0.406,0.051-0.864,0.202-1.118,0.609c-0.153,0.255-0.204,0.509-0.204,0.662
	c0.051,0.662,1.222,0.458,1.934,0.356c0.611-0.052,1.323-0.203,1.731-0.254c0.203-0.052,0.254,0.102,0.458,0
	c0.151-0.103,0.051-0.561-0.458-0.458c-0.255,0.051-1.477,0.254-1.681,0.254c-0.203,0.051-1.271,0.204-1.322,0
	c-0.052-0.356,0.254-0.61,0.66-0.661c0.866-0.153,1.935,0.151,2.036,0.203c0.103,0,0.51,0.102,0.765,0.051
	c0.203-0.051,0.254-0.407,0.102-0.611c-0.152-0.203-0.459-0.407-0.662-0.509c-0.61-0.254-1.476-0.407-2.036-0.203
	c-0.255,0.051-0.255,0.254-0.204,0.356C63.303,31.623,63.457,31.674,63.507,31.674"/>
<path fill="#EBEDED" d="M66.968,31.928c0.103,0,0.561-0.152,0.714-0.152c0.151,0,0.202,0.152,0.05,0.407
	c-0.152,0.203-0.814,0.764-0.916,0.865c-0.102,0.103-0.203,0.356,0.051,0.458c0.153,0.052,0.356,0,0.509-0.152
	c0.153-0.153,0.916-1.12,1.12-1.222c0.203-0.102,0.509-0.356,0.763-0.407c0.357-0.102,0.458,0,0.51-0.102
	c0.051-0.102,0-0.408-0.713-0.153s-0.713,0.306-0.713,0.306s0.204-0.407-0.203-0.407s-1.171,0.407-1.222,0.458
	C66.816,31.877,66.867,31.979,66.968,31.928"/>
<path fill="#EBEDED" d="M73.381,28.62c0,0-3.868,4.072-4.123,4.326c-0.254,0.255-0.254,0.509-0.051,0.56
	c0.153,0.051,0.306,0.103,0.815-0.509c0.458-0.611,3.766-4.021,3.766-4.123c0.051-0.05,0.407-0.356,0.204-0.508
	C73.839,28.162,73.484,28.467,73.381,28.62"/>
<path fill="#EBEDED" d="M74.501,31.623c-0.103,0.051-1.019,0.254-1.477,0.509c-0.458,0.254-1.018,0.662-0.916,0.865
	c0.153,0.255,1.12-0.203,1.323-0.407c0.204-0.204,0.509-0.356,0.255-1.323c-0.102-0.356,0.102-0.306,0.203-0.356
	c0.103,0,0.255,0.255,0.306,0.56c0.052,0.306,0.306,0.815-0.203,1.273c-0.561,0.509-2.036,1.17-2.393,0.56
	c-0.355-0.611,0.814-1.426,1.221-1.629c0.46-0.204,0.611-0.255,1.019-0.255C74.348,31.369,74.501,31.623,74.501,31.623"/>
<path fill="#EBEDED" d="M77.25,31.674c-0.102,0-0.61,0.102-0.813,0.458c-0.204,0.355-0.204,0.916-0.458,1.222
	c-0.103,0.102-0.458,0.254-0.765,0.152c-0.305-0.103-0.61-0.356-0.662-0.561c-0.05-0.151,0.153-0.355,0.307-0.202
	c0.152,0.152,0.56,0.458,0.712,0.305c0.153-0.152,0.204-0.814,0.56-1.221c0.357-0.407,0.866-0.611,1.223-0.561
	c0.406,0.103,0.508,0.458,0.355,0.661c-0.152,0.204-0.458,0.153-0.355,0C77.454,31.775,77.403,31.674,77.25,31.674"/>
<path fill="#EBEDED" d="M60.556,29.18c-0.561,0-1.73,0.305-4.326,1.222c-0.815,0.306-2.799,1.018-2.799,1.73
	c0,0.407,1.221,0.967,2.95,1.069c1.731,0.051,4.226-0.256,4.43-0.256c0.508,0,0.508,0.611-0.051,0.561
	c-0.561-0.103-3.818,0.458-5.6,0.051c-1.271-0.305-2.188-0.662-2.188-1.323c0-0.713,1.323-1.476,2.851-2.036
	c3.359-1.271,4.58-1.373,5.14-1.373c0.765,0,0.662,0.406,0.611,0.56c-0.102,0.203-0.509,0.356-0.763,0.356
	C60.454,29.587,61.116,29.18,60.556,29.18"/>
<path fill="#EBEDED" d="M87.683,28.467c-0.152,0.153-4.377,4.429-4.479,4.581c-0.102,0.102-0.102,0.356-0.051,0.407
	c0.102,0.051,0.355,0.103,0.459-0.051c0.102-0.153,2.137-2.239,2.391-2.494c0.918-0.916,1.885-1.985,2.037-2.188
	c0.102-0.102,0.051-0.306-0.051-0.356C87.888,28.365,87.735,28.416,87.683,28.467"/>
<path fill="#EBEDED" d="M86.817,31.419c-0.102,0.103-1.475,1.426-1.525,1.477s-0.307,0.254-0.104,0.509
	c0.205,0.204,0.408-0.051,0.459-0.102c0.203-0.203,1.426-1.477,1.477-1.578s0.051-0.254,0-0.356
	C87.124,31.317,86.921,31.317,86.817,31.419"/>
<path fill="#EBEDED" d="M88.446,31.725c-0.051,0.051-0.662,0.813-0.863,0.967c-0.205,0.153-0.357,0.356-0.408,0.407
	c-0.102,0.102-0.102,0.255,0,0.355c0.102,0.103,0.459,0.052,1.068-0.254c0.662-0.305,2.697-1.374,2.748-1.322
	c0.053,0-0.254,0.813-0.355,1.018c0,0.051-0.102,0.152-0.102,0.152c-0.051,0.102-0.051,0.152,0,0.306
	c0.051,0.152,0.203,0.152,0.66-0.102c0.662-0.356,1.986-1.426,2.801-1.426c0.305,0,0.406,0.306,0.355,0.661
	c0,0.153-0.152,0.561-0.203,0.611c-0.051,0.153-0.152,0.306,0.051,0.355c0.203,0.052,0.254,0,0.357-0.151
	c0.203-0.255,0.305-0.713,0.305-0.916c0.051-0.611-0.205-1.223-0.713-1.171c-0.916,0-2.799,1.171-2.799,1.222
	c0,0.05,0.508-1.222,0.102-1.273c-0.713-0.102-2.951,1.223-2.951,1.223c-0.053-0.051,0.051-0.051,0.102-0.153
	c0.406-0.458,0.609-0.662,0.508-0.865c-0.152-0.306-0.814,0.052-0.814,0.052C88.294,31.674,88.601,31.571,88.446,31.725"/>
<path fill="#EBEDED" d="M79.896,33.404c0.764,0.051,2.443-1.985,3.207-2.851c0.814-0.864,2.393-2.646,3.105-2.493
	c0.406,0.102,0.254,0.458,0.051,0.661c0,0-0.355,0.407-0.51,0.306c-0.152-0.103,0.256-0.204,0.355-0.356
	c0.154-0.204,0.154-0.356-0.1-0.255c-0.205,0.103-1.324,1.171-2.699,2.647c-1.068,1.119-2.289,2.595-3.104,2.799
	s-1.578-0.763-1.375-1.069c0.205-0.305,0.865-0.305,0.967-0.203s-0.457,0.052-0.508,0.203
	C79.233,32.896,79.489,33.404,79.896,33.404"/>
<path fill="#EBEDED" d="M87.022,30.401c0,0,0.102-0.305,0.305-0.305s0.457,0.151,0.408,0.355c-0.102,0.153-0.154,0.407-0.408,0.407
	C87.124,30.859,86.921,30.605,87.022,30.401"/>
<polygon fill="#EBEDED" points="25.793,30.809 25.793,31.826 27.32,31.826 27.32,32.08 25.793,32.08 25.793,33.404 25.438,33.404 
	25.438,30.504 27.32,30.504 27.32,30.809 "/>
<path fill="#EBEDED" d="M30.018,30.503h0.356v2.036c0,0.356-0.051,0.611-0.254,0.712c-0.153,0.103-0.458,0.153-0.967,0.153
	c-0.458,0-0.764-0.051-0.967-0.153c-0.153-0.101-0.255-0.305-0.255-0.661v-0.102v-2.036h0.357v2.036c0,0.254,0.05,0.458,0.152,0.509
	s0.306,0.102,0.713,0.102s0.661-0.051,0.763-0.102s0.153-0.255,0.153-0.509v-1.985H30.018z"/>
<polygon fill="#EBEDED" points="33.784,30.503 33.784,33.404 33.224,33.404 31.952,31.419 31.748,31.114 31.646,30.961 
	31.545,30.808 31.494,30.808 31.494,30.91 31.494,31.012 31.494,31.216 31.494,33.404 31.188,33.404 31.188,30.503 31.748,30.503 
	32.868,32.233 33.122,32.692 33.275,32.946 33.428,33.15 33.428,33.048 33.428,32.946 33.428,32.692 33.428,30.503 "/>
<path fill="#EBEDED" d="M34.599,33.403v-2.9h1.425c0.458,0,0.712,0.102,0.865,0.255c0.153,0.203,0.255,0.56,0.255,1.069
	c0,0.609-0.051,1.068-0.204,1.271c-0.153,0.204-0.407,0.305-0.814,0.305H34.599z M34.955,33.149h1.018
	c0.356,0,0.611-0.051,0.712-0.204c0.102-0.151,0.153-0.458,0.153-0.916c0-0.509-0.051-0.864-0.153-1.018
	c-0.101-0.152-0.305-0.203-0.661-0.203h-1.069V33.149z"/>
<path fill="#EBEDED" d="M39.689,32.793h-1.527l-0.255,0.611H37.55l1.12-2.901h0.458l1.171,2.901h-0.356L39.689,32.793z
	 M39.586,32.539l-0.662-1.781l-0.661,1.781H39.586z"/>
<path fill="#EBEDED" d="M42.843,32.438H43.2v0.102c0,0.407-0.102,0.661-0.203,0.763c-0.153,0.103-0.509,0.153-1.069,0.153
	c-0.508,0-0.813-0.102-0.967-0.255c-0.152-0.152-0.203-0.559-0.203-1.221c0-0.51,0-0.814,0.051-0.968
	c0.051-0.152,0.102-0.255,0.255-0.355c0.151-0.103,0.559-0.153,1.118-0.153c0.408,0,0.662,0.051,0.815,0.153
	c0.152,0.101,0.203,0.355,0.203,0.661v0.051h-0.356v-0.102c0-0.255-0.051-0.407-0.102-0.458c-0.102-0.052-0.254-0.102-0.561-0.102
	c-0.508,0-0.762,0.05-0.916,0.102c-0.102,0.102-0.151,0.306-0.151,0.661c0,0.814,0.05,1.272,0.101,1.426
	c0.051,0.152,0.307,0.204,0.764,0.204c0.408,0,0.662-0.052,0.764-0.103s0.153-0.204,0.153-0.458L42.843,32.438z"/>
<rect x="43.811" y="30.503" fill="#EBEDED" width="0.356" height="2.9"/>
<path fill="#EBEDED" d="M46.101,30.503c0.561,0,0.916,0.102,1.069,0.255c0.151,0.153,0.203,0.56,0.203,1.221
	c0,0.713-0.052,1.12-0.203,1.273c-0.153,0.151-0.509,0.254-1.069,0.254c-0.61,0-0.967-0.051-1.069-0.254
	c-0.152-0.153-0.203-0.561-0.203-1.223v-0.202v-0.256c0-0.406,0.102-0.66,0.255-0.763C45.288,30.554,45.592,30.503,46.101,30.503
	 M46.101,30.758c-0.509,0-0.764,0.051-0.865,0.153c-0.102,0.101-0.102,0.458-0.102,1.067c0,0.611,0.051,0.967,0.102,1.069
	c0.102,0.102,0.356,0.153,0.865,0.153s0.763-0.052,0.865-0.153c0.102-0.103,0.102-0.458,0.102-1.069v-0.203v-0.255
	c0-0.305-0.051-0.509-0.152-0.609C46.763,30.809,46.508,30.758,46.101,30.758 M46.508,29.688l0.153,0.254l-0.714,0.307l-0.102-0.153
	L46.508,29.688z"/>
<polygon fill="#EBEDED" points="50.631,30.503 50.631,33.404 50.071,33.404 48.799,31.419 48.595,31.114 48.493,30.961 
	48.392,30.808 48.392,30.91 48.392,31.012 48.392,31.216 48.392,33.404 48.035,33.404 48.035,30.503 48.595,30.503 49.715,32.233 
	50.02,32.692 50.173,32.946 50.275,33.15 50.326,33.15 50.326,33.048 50.275,32.946 50.275,32.692 50.275,30.503 "/>
</svg>
