<?xml version="1.0" encoding="utf-8"?>
<!-- Generator: Adobe Illustrator 16.0.0, SVG Export Plug-In . SVG Version: 6.00 Build 0)  -->
<!DOCTYPE svg PUBLIC "-//W3C//DTD SVG 1.1//EN" "http://www.w3.org/Graphics/SVG/1.1/DTD/svg11.dtd">
<svg version="1.1" id="Layer_1" xmlns="http://www.w3.org/2000/svg" xmlns:xlink="http://www.w3.org/1999/xlink" x="0px" y="0px"
	 width="150.253px" height="39.731px" viewBox="0 0 150.253 39.731" enable-background="new 0 0 150.253 39.731"
	 xml:space="preserve">
<path fill-rule="evenodd" clip-rule="evenodd" fill="#F2F4F4" d="M74.612,27.492v-15.49c0.247-0.246,0.461-0.46,0.771-0.768h9.163
	c1.335,0.509,2.348,1.42,3.341,2.6v11.647c-0.649,0.866-2.073,0.919-2.636,2.011H74.612z M84.924,24.161
	c0-2.718-0.039-5.425,0.024-8.128c0.019-0.798-0.27-1.317-0.778-1.718H77.69v9.923c0.291,0.291,0.504,0.503,0.776,0.772h5.603
	C84.292,24.789,84.506,24.576,84.924,24.161"/>
<path fill-rule="evenodd" clip-rule="evenodd" fill="#F2F4F4" d="M8.244,19.839c1.64-2.822,3.341-5.749,5.048-8.688h2.64
	c1.559,2.663,3.181,5.434,4.935,8.426v7.744c-0.741,0.3-1.43,0.155-2.162,0.121c-0.5-1.105,0.068-2.343-0.347-3.52h-7.053v3.333
	c-1.027,0.423-2,0.189-3.061,0.205V19.839z M11.132,21.33h6.634c0.499-1.514-0.62-2.409-1.109-3.492
	c-0.78-1.729-0.824-1.709-2.441-2.936C13.473,17.143,11.303,18.665,11.132,21.33"/>
<path fill-rule="evenodd" clip-rule="evenodd" fill="#F2F4F4" d="M98.321,23.545c-0.475-0.472-0.832-0.828-1.201-1.192v-4.191
	c0.691-1.007,1.688-1.614,3.037-2.182c2.209,0.268,4.857-0.629,7.252,0.848c0.061,0.473,0.188,0.955-0.096,1.464
	c-0.252,0.056-0.529,0.115-0.938,0.204c1.014,1.896,0.521,3.582-0.723,5.085c-1.754,0.888-3.582,0.989-5.457,1.08
	c1.551,0.441,2.932,1.377,3.881,1.139c2.186,0.327,2.844,1.475,3.391,2.75c-0.301,1.631-1.572,2.605-2.758,3.809
	c-2.426-0.288-5.049,0.625-7.527-0.828v-1.5h6.328c0.23-0.273,0.402-0.528,0.627-0.725c0.252-0.225,0.309-0.486,0.266-1.035
	c-1.758,0.003-3.34-1.16-5.15-0.748c-0.629-0.798-1.781-0.681-2.16-1.726C97.432,25.119,97.59,24.259,98.321,23.545 M99.549,19.316
	c0.033,0.953-0.279,2.014,0.934,2.681h3.049c1.504-0.971,0.654-2.309,0.947-3.539h-4.066
	C100.184,18.684,99.973,18.895,99.549,19.316"/>
<path fill-rule="evenodd" clip-rule="evenodd" fill="#F2F4F4" d="M37.29,11.193h2.442v16.146c-0.868,0.246-1.645,0.402-2.088-0.62
	c-1.936,1.362-3.982,0.526-6.052,0.829c-0.396-0.501-0.827-1.049-1.456-1.845v-7.655c0.658-0.653,1.301-1.293,2.067-2.054
	c1.596,0.031,3.333-0.321,5.087,0.831V11.193z M32.623,19.209v5.661c0.32,0.318,0.535,0.532,0.732,0.729h2.668
	c-0.121-0.147-0.242-0.293-0.362-0.441c0.63-0.341,1.261-0.684,1.67-0.905v-4.999c-0.276-0.273-0.491-0.486-0.78-0.773h-3.193
	C33.155,18.682,32.94,18.895,32.623,19.209"/>
<path fill-rule="evenodd" clip-rule="evenodd" fill="#F2F4F4" d="M56.555,21.49c0.545,0.068,0.912-0.245,1.319-0.749h5.113
	c0-0.495,0.094-0.915-0.027-1.264c-0.121-0.35-0.455-0.625-0.761-1.016h-5.043c-0.145-1.446-0.145-1.446,0.595-2.433h5.336
	c0.935,0.934,1.857,1.854,2.858,2.854v8.455c-1.083,0.323-2.01,0.244-2.849-0.479c-0.709,0.459-1.632,0.529-2.223,1.221
	c-1.796,0.107-3.507,0.049-4.598-1.744C55.317,24.761,55.493,23.239,56.555,21.49 M58.777,25.573h2.796
	c1.256-1.338,1.256-1.338,1.261-2.812h-4.057V25.573z"/>
<path fill-rule="evenodd" clip-rule="evenodd" fill="#F2F4F4" d="M52.413,24.965c0.426,1.158,0.179,1.835-0.768,2.526h-3.344h-3.292
	c-0.675-0.673-1.319-1.312-2.047-2.035v-5.871c0.454-1.626,1.539-2.498,2.606-3.529h4.665c1.289,0.455,2.179,1.037,2.929,2.062
	v3.693c-0.266,0.265-0.552,0.547-0.838,0.833h-6.109c-0.528,0.688-0.251,1.464-0.218,2.32H52.413z M46.086,20.727h4.573
	c0.438-1.104-0.056-1.765-0.68-2.215h-3.198C45.893,19.148,45.706,19.83,46.086,20.727"/>
<path fill-rule="evenodd" clip-rule="evenodd" fill="#F2F4F4" d="M127.366,20.747h5.09c0-0.489,0.092-0.906-0.025-1.253
	c-0.119-0.35-0.445-0.629-0.738-1.016h-4.926c-0.637-0.488-0.27-1.043-0.443-1.474c1.91-1.607,4.166-0.817,6.088-1.028
	c1.006,1.004,1.922,1.92,3.029,3.024v8.265c-0.141,0.108-0.217,0.217-0.295,0.218c-0.604,0.016-1.205,0.009-1.861,0.009
	c-0.129-0.365-0.252-0.716-0.377-1.065c-0.145-0.15-0.256-0.08-0.436,0.131c-0.707,0.837-1.672,1.226-2.693,1.552
	c-1.17,0.374-1.93-0.78-3.102-0.701c-0.77,0.052-1.783-3.146-1.322-4.016c0.182-0.348,0.27-0.736,0.441-1.02
	C126.153,21.787,126.756,21.349,127.366,20.747 M128.36,22.706c-0.297,1.128-0.455,2.162,0.709,2.911h1.668
	c0.734-0.603,1.268-1.038,1.75-1.435c-0.129-0.578,0.193-1.114-0.264-1.477H128.36z"/>
<path fill-rule="evenodd" clip-rule="evenodd" fill="#F2F4F4" d="M115.571,15.966h1.416c0.58-0.897-0.072-1.967,0.365-2.814
	c0.715-1.148,1.768-0.707,2.826-0.836v3.598h3.057v2.458h-2.904v6.589h2.646c0.541,0.82,0.332,1.589,0.24,2.441h-3.93
	c-1.492-1.224-2.293-2.775-2.09-4.834c0.127-1.292,0.023-2.607,0.023-3.897C116.042,18.202,114.944,17.729,115.571,15.966"/>
<path fill-rule="evenodd" clip-rule="evenodd" fill="#F2F4F4" d="M141.506,27.429h-2.844V14.048
	c-0.713-0.626-1.791-0.63-1.943-1.682c-0.018-0.601,0.588-0.753,0.85-1.165h3.938V27.429z"/>
<path fill-rule="evenodd" clip-rule="evenodd" fill="#F2F4F4" d="M24.086,13.76c-1.049-0.245-1.732-0.547-1.932-1.396
	c0.024-0.618,0.612-0.777,0.852-1.149h3.951V27.34c-0.842,0.328-1.812,0.111-2.871,0.121V13.76z"/>
<path fill-rule="evenodd" clip-rule="evenodd" fill="#F2F4F4" d="M94.579,27.429h-2.836v-8.408c-0.5-0.953-1.738-0.514-1.939-1.514
	v-1.375c1.318-0.319,2.687-0.054,3.941-0.165c0.314,0.312,0.527,0.525,0.834,0.831V27.429z"/>
<path fill-rule="evenodd" clip-rule="evenodd" fill="#F2F4F4" d="M110,18.575c-0.58-0.148-0.855-0.219-1.143-0.293
	c-0.34-0.647-0.121-1.344-0.15-2.158h4.162v11.151c-0.836,0.583-1.83-0.041-2.869,0.346V18.575z"/>
<path fill-rule="evenodd" clip-rule="evenodd" fill="#F2F4F4" d="M111.506,14.167c-0.828,0.035-1.52-0.553-1.598-1.362
	c-0.096-0.971,0.615-1.709,1.6-1.665c0.828,0.037,1.447,0.685,1.447,1.514C112.956,13.483,112.334,14.132,111.506,14.167"/>
<path fill-rule="evenodd" clip-rule="evenodd" fill="#F2F4F4" d="M91.62,14.055c0.066-1.896,0.066-1.896,1.178-2.944
	c0.98,0.189,1.201,1.216,1.818,1.488c0.129,0.598-0.098,0.794-0.297,1.019C93.495,14.545,92.555,14.14,91.62,14.055"/>
</svg>
