<?xml version="1.0" encoding="utf-8"?>
<!-- Generator: Adobe Illustrator 16.0.0, SVG Export Plug-In . SVG Version: 6.00 Build 0)  -->
<!DOCTYPE svg PUBLIC "-//W3C//DTD SVG 1.1//EN" "http://www.w3.org/Graphics/SVG/1.1/DTD/svg11.dtd">
<svg version="1.1" id="Capa_1" xmlns="http://www.w3.org/2000/svg" xmlns:xlink="http://www.w3.org/1999/xlink" x="0px" y="0px"
	 width="841.889px" height="595.281px" viewBox="0 0 841.889 595.281" enable-background="new 0 0 841.889 595.281"
	 xml:space="preserve">
<g>
	<g>
		<g>
			<path fill="#CF746A" d="M161.407,264.508c-2.763-7.729,0-19.326,5.521-25.4L316.577,74.549c5.521-6.074,16.565-9.939,24.85-7.73
				l217.018,46.938c8.283,1.657,16.566,9.389,19.327,17.672l67.369,211.496c2.762,7.729,0,19.326-5.521,25.4L490.523,532.882
				c-5.521,6.073-16.566,9.939-24.85,7.73l-217.019-46.938c-8.282-1.657-16.564-9.389-19.326-17.671L161.407,264.508z"/>
		</g>
	</g>
	<g>
		<path fill="#FFFFFF" d="M537.184,248.747h-267.82c-5.521,0-9.938-4.418-9.938-9.938v-4.418c0-5.522,4.417-9.939,9.938-9.939
			h267.82c5.521,0,9.939,4.417,9.939,9.939v4.418C547.124,244.329,542.706,248.747,537.184,248.747z"/>
		<path fill="#FFFFFF" d="M537.46,315.863H269.64c-5.521,0-9.938-4.417-9.938-9.939v-4.418c0-5.521,4.417-9.938,9.938-9.938h267.82
			c5.521,0,9.939,4.417,9.939,9.938v4.418C547.401,311.446,542.983,315.863,537.46,315.863z"/>
		<path fill="#FFFFFF" d="M537.46,377.831H269.64c-5.521,0-9.938-4.417-9.938-9.939v-4.418c0-5.521,4.417-9.938,9.938-9.938h267.82
			c5.521,0,9.939,4.418,9.939,9.938v4.418C547.401,373.414,542.983,377.831,537.46,377.831z"/>
	</g>
</g>
</svg>
